<?xml version="1.0" encoding="UTF-8"?>
<svg version="1.1" xmlns="http://www.w3.org/2000/svg" width="179" height="148">
<path d="M0 0 C6.73370922 5.40212364 12.50207063 11.21629834 16.4296875 18.94921875 C16.89503906 19.75488281 17.36039062 20.56054688 17.83984375 21.390625 C23.69300802 33.37412288 24.03300693 50.78540186 20.3203125 63.4921875 C17.50116661 70.44153368 13.45060109 76.40621902 8.4296875 81.94921875 C7.90890625 82.56152344 7.388125 83.17382812 6.8515625 83.8046875 C-2.50714022 94.09471743 -15.49790039 98.74688127 -29.0390625 100.36328125 C-41.61985146 100.91152664 -56.73587331 97.18888402 -66.5703125 88.94921875 C-66.5703125 88.28921875 -66.5703125 87.62921875 -66.5703125 86.94921875 C-67.2096875 86.68109375 -67.8490625 86.41296875 -68.5078125 86.13671875 C-70.5703125 84.94921875 -70.5703125 84.94921875 -71.5703125 81.94921875 C-72.4365625 81.57796875 -72.4365625 81.57796875 -73.3203125 81.19921875 C-79.70440355 77.6525015 -83.28483535 68.5683122 -85.5703125 61.94921875 C-88.32358857 45.34405686 -87.71872263 28.47139012 -78.5703125 13.94921875 C-75.55625274 10.00137732 -72.23773306 6.30002746 -68.5703125 2.94921875 C-67.9103125 2.94921875 -67.2503125 2.94921875 -66.5703125 2.94921875 C-66.5703125 2.28921875 -66.5703125 1.62921875 -66.5703125 0.94921875 C-47.05360618 -13.80642886 -19.9117339 -13.95031813 0 0 Z " fill="#090B0C" transform="translate(121.5703125,34.05078125)"/>
<path d="M0 0 C6.73370922 5.40212364 12.50207063 11.21629834 16.4296875 18.94921875 C16.89503906 19.75488281 17.36039062 20.56054688 17.83984375 21.390625 C23.70578748 33.40028696 24.09443474 50.97215602 20.21484375 63.66796875 C18.19976236 68.96488587 15.61995256 73.09599675 11.4296875 76.94921875 C9.48057346 63.72522965 9.48057346 63.72522965 13.4921875 58.01171875 C14.1315625 57.33109375 14.7709375 56.65046875 15.4296875 55.94921875 C12.1296875 55.94921875 8.8296875 55.94921875 5.4296875 55.94921875 C5.4296875 53.94921875 5.4296875 53.94921875 6.9296875 52.32421875 C7.4246875 51.87046875 7.9196875 51.41671875 8.4296875 50.94921875 C7.6871875 50.82546875 6.9446875 50.70171875 6.1796875 50.57421875 C3.4296875 49.94921875 3.4296875 49.94921875 -0.5703125 47.94921875 C-0.5703125 39.03921875 -0.5703125 30.12921875 -0.5703125 20.94921875 C-3.0659375 20.14484375 -5.5615625 19.34046875 -8.1328125 18.51171875 C-8.90439697 18.2597876 -9.67598145 18.00785645 -10.47094727 17.74829102 C-14.84020758 16.36239973 -19.01508604 15.46998708 -23.5703125 14.94921875 C-21.59611115 12.42662814 -20.60285608 11.95623795 -17.3828125 11.26171875 C-16.4546875 11.15859375 -15.5265625 11.05546875 -14.5703125 10.94921875 C-18.15897755 5.41505031 -20.92953534 1.72009266 -27.5703125 -0.05078125 C-33.27914538 -0.77819705 -38.1325236 -0.62176472 -43.03125 2.59375 C-45.78963007 5.02308473 -47.60630874 7.85442495 -49.5703125 10.94921875 C-48.8071875 11.05234375 -48.0440625 11.15546875 -47.2578125 11.26171875 C-44.34395204 12.00712491 -43.54080853 12.79380814 -41.5703125 14.94921875 C-42.47652344 15.13097656 -43.38273437 15.31273438 -44.31640625 15.5 C-51.25545682 16.93186758 -57.90742564 18.5367942 -64.5703125 20.94921875 C-64.2403125 21.27921875 -63.9103125 21.60921875 -63.5703125 21.94921875 C-63.48283043 23.87589382 -63.46333916 25.80573736 -63.47265625 27.734375 C-63.47587891 28.90419922 -63.47910156 30.07402344 -63.48242188 31.27929688 C-63.49080078 32.51099609 -63.49917969 33.74269531 -63.5078125 35.01171875 C-63.51232422 36.24728516 -63.51683594 37.48285156 -63.52148438 38.75585938 C-63.53331642 41.82035992 -63.54980077 44.88476596 -63.5703125 47.94921875 C-66.5403125 48.93921875 -69.5103125 49.92921875 -72.5703125 50.94921875 C-71.9103125 52.26921875 -71.2503125 53.58921875 -70.5703125 54.94921875 C-74.5303125 55.93921875 -74.5303125 55.93921875 -78.5703125 56.94921875 C-78.16039062 57.56410156 -77.75046875 58.17898437 -77.328125 58.8125 C-70.5703125 68.94921875 -70.5703125 68.94921875 -70.7578125 70.69921875 C-71.89460361 73.84725566 -73.21629799 76.88796854 -74.5703125 79.94921875 C-77.22574272 76.74438917 -79.54185475 73.58353889 -81.5703125 69.94921875 C-81.91320312 69.35109375 -82.25609375 68.75296875 -82.609375 68.13671875 C-82.96773437 67.47671875 -83.32609375 66.81671875 -83.6953125 66.13671875 C-84.19417969 65.22986328 -84.19417969 65.22986328 -84.703125 64.3046875 C-89.52861523 51.19761268 -87.6879052 32.43707209 -82.0703125 20.01171875 C-78.62195336 13.43081554 -74.04999738 7.95583731 -68.5703125 2.94921875 C-67.9103125 2.94921875 -67.2503125 2.94921875 -66.5703125 2.94921875 C-66.5703125 2.28921875 -66.5703125 1.62921875 -66.5703125 0.94921875 C-47.05360618 -13.80642886 -19.9117339 -13.95031813 0 0 Z " fill="#2A2D30" transform="translate(121.5703125,34.05078125)"/>
<path d="M0 0 C3.83637987 2.178877 6.17742235 4.76676337 8.6875 8.375 C8.6875 9.035 8.6875 9.695 8.6875 10.375 C6.0475 11.365 3.4075 12.355 0.6875 13.375 C1.84507813 13.62894531 3.00265625 13.88289063 4.1953125 14.14453125 C5.7344671 14.49177954 7.27352453 14.83945867 8.8125 15.1875 C9.57304688 15.35314453 10.33359375 15.51878906 11.1171875 15.68945312 C11.86484375 15.86025391 12.6125 16.03105469 13.3828125 16.20703125 C14.4039917 16.43483276 14.4039917 16.43483276 15.44580078 16.66723633 C17.6875 17.375 17.6875 17.375 23.6875 20.375 C23.3575 29.285 23.0275 38.195 22.6875 47.375 C25.6575 48.365 28.6275 49.355 31.6875 50.375 C31.3575 51.365 31.0275 52.355 30.6875 53.375 C30.0275 53.375 29.3675 53.375 28.6875 53.375 C28.6875 54.035 28.6875 54.695 28.6875 55.375 C31.9875 55.375 35.2875 55.375 38.6875 55.375 C36.6875 59.375 36.6875 59.375 35.6875 60.375 C34.77053876 66.08053659 34.56727358 71.60413206 34.6875 77.375 C34.3575 77.375 34.0275 77.375 33.6875 77.375 C33.56375 76.281875 33.44 75.18875 33.3125 74.0625 C32.93285199 70.30118198 32.93285199 70.30118198 30.6875 67.375 C31.3475 67.375 32.0075 67.375 32.6875 67.375 C32.64625 66.281875 32.605 65.18875 32.5625 64.0625 C32.6875 60.375 32.6875 60.375 34.6875 57.375 C30.7275 57.045 26.7675 56.715 22.6875 56.375 C23.94291557 53.86416886 25.18813488 53.50374554 27.6875 52.375 C25.3775 51.055 23.0675 49.735 20.6875 48.375 C20.6875 39.135 20.6875 29.895 20.6875 20.375 C17.34625 19.6325 17.34625 19.6325 13.9375 18.875 C12.68453125 18.5965625 11.4315625 18.318125 10.140625 18.03125 C6.61837755 17.25053097 6.61837755 17.25053097 2.6875 17.375 C7.9675 18.695 13.2475 20.015 18.6875 21.375 C18.74147048 24.62522232 18.78115955 27.87454753 18.8125 31.125 C18.82925781 32.04539063 18.84601563 32.96578125 18.86328125 33.9140625 C18.86972656 34.80351563 18.87617187 35.69296875 18.8828125 36.609375 C18.89328613 37.42631836 18.90375977 38.24326172 18.91455078 39.08496094 C18.6875 41.375 18.6875 41.375 16.6875 45.375 C16.6875 38.115 16.6875 30.855 16.6875 23.375 C12.2325 22.385 12.2325 22.385 7.6875 21.375 C6.6975 21.045 5.7075 20.715 4.6875 20.375 C5.4609375 21.8909375 5.4609375 21.8909375 6.25 23.4375 C8.37596573 28.35816246 7.34403793 32.4053862 5.6875 37.375 C5.33929959 39.03862417 5.00345508 40.70495171 4.6875 42.375 C4.3575 42.375 4.0275 42.375 3.6875 42.375 C2.7109375 36.3203125 2.7109375 36.3203125 2.6875 34.375 C3.3475 33.715 4.0075 33.055 4.6875 32.375 C5.34977976 27.73904165 3.61958568 24.48068208 1.6875 20.375 C2.1825 22.85 2.1825 22.85 2.6875 25.375 C-1.82305622 23.9157024 -4.92750339 21.68306487 -8.3125 18.375 C-9.0625 15.6875 -9.0625 15.6875 -9.3125 13.375 C-9.9725 12.715 -10.6325 12.055 -11.3125 11.375 C-13.42070797 11.6935177 -13.42070797 11.6935177 -15.3125 12.375 C-15.3125 11.715 -15.3125 11.055 -15.3125 10.375 C-17.7875 9.385 -17.7875 9.385 -20.3125 8.375 C-19.30089887 5.44135673 -18.31714842 4.37828791 -15.75 2.5625 C-10.759234 0.8384172 -6.22931589 1.00308251 -1.40234375 3.2734375 C0.25 4.3125 0.25 4.3125 2.6875 6.375 C2.6875 7.375 2.6875 8.375 2.6875 9.375 C3.3475 9.375 4.0075 9.375 4.6875 9.375 C2.60432406 5.31828896 0.97497299 3.07212473 -3.3125 1.375 C-8.20022041 0.8376452 -12.65375227 0.70444241 -17.25 2.5625 C-19.60556055 4.63253806 -21.46595653 6.84455154 -23.3125 9.375 C-22.405 9.643125 -21.4975 9.91125 -20.5625 10.1875 C-17.55504233 11.28637877 -15.74436879 12.36241894 -13.3125 14.375 C-12.3225 15.035 -11.3325 15.695 -10.3125 16.375 C-11.240625 16.91125 -12.16875 17.4475 -13.125 18 C-16.55266479 20.55394631 -17.7162685 22.47310078 -19.3125 26.375 C-15.87654834 24.84791037 -13.19337546 22.77572955 -10.3125 20.375 C-6.76211249 22.08268079 -3.51851621 24.11698184 -0.21484375 26.25390625 C1.79243004 27.52621193 1.79243004 27.52621193 4.6875 28.375 C4.3575 29.035 4.0275 29.695 3.6875 30.375 C3.0275 30.045 2.3675 29.715 1.6875 29.375 C1.419375 30.15875 1.15125 30.9425 0.875 31.75 C-0.3125 34.375 -0.3125 34.375 -3.3125 36.375 C-3.67612818 38.58225073 -3.67612818 38.58225073 -3.5 41 C-3.438125 42.44375 -3.37625 43.8875 -3.3125 45.375 C-2.9825 42.405 -2.6525 39.435 -2.3125 36.375 C-0.9925 36.375 0.3275 36.375 1.6875 36.375 C2.27675376 39.74216432 2.14072469 41.72654005 0.1640625 44.5546875 C-1.5995262 46.57741577 -3.36171983 48.53181682 -5.3125 50.375 C-5.6425 50.375 -5.9725 50.375 -6.3125 50.375 C-5.9825 45.095 -5.6525 39.815 -5.3125 34.375 C-3.6625 33.715 -2.0125 33.055 -0.3125 32.375 C-0.3125 31.385 -0.3125 30.395 -0.3125 29.375 C-3.32815163 30.38074976 -3.32815163 30.38074976 -6.3125 32.375 C-7.76217902 35.9443717 -7.76217902 35.9443717 -8.3125 39.375 C-8.9725 38.715 -9.6325 38.055 -10.3125 37.375 C-9.6525 37.375 -8.9925 37.375 -8.3125 37.375 C-8.3125 32.425 -8.3125 27.475 -8.3125 22.375 C-10.6225 24.025 -12.9325 25.675 -15.3125 27.375 C-13.6625 28.365 -12.0125 29.355 -10.3125 30.375 C-10.8075 31.365 -10.8075 31.365 -11.3125 32.375 C-13.2925 31.385 -15.2725 30.395 -17.3125 29.375 C-17.3125 30.365 -17.3125 31.355 -17.3125 32.375 C-15.6625 33.035 -14.0125 33.695 -12.3125 34.375 C-11.8175 42.295 -11.8175 42.295 -11.3125 50.375 C-18.1875 44.625 -18.1875 44.625 -19.3125 42.375 C-19.44665472 39.7026379 -19.35568541 37.05249512 -19.3125 34.375 C-18.9825 34.375 -18.6525 34.375 -18.3125 34.375 C-18.19132812 35.00148437 -18.07015625 35.62796875 -17.9453125 36.2734375 C-17.69394531 37.49933594 -17.69394531 37.49933594 -17.4375 38.75 C-17.27507812 39.56210938 -17.11265625 40.37421875 -16.9453125 41.2109375 C-16.44591068 43.56173923 -16.44591068 43.56173923 -14.3125 45.375 C-14.0836036 42.34212265 -13.95119302 39.40027187 -14.3125 36.375 C-16.13687884 34.44288056 -16.13687884 34.44288056 -18.3125 33.375 C-18.6425 32.385 -18.9725 31.395 -19.3125 30.375 C-19.9725 30.045 -20.6325 29.715 -21.3125 29.375 C-21.6425 30.365 -21.9725 31.355 -22.3125 32.375 C-21.9825 33.035 -21.6525 33.695 -21.3125 34.375 C-21.17834528 37.0473621 -21.26931459 39.69750488 -21.3125 42.375 C-23.3125 41.375 -23.3125 41.375 -23.9453125 39.51953125 C-25.72518576 31.08632221 -25.78547 25.90180493 -21.3125 18.375 C-20.8175 17.88 -20.8175 17.88 -20.3125 17.375 C-21.611875 17.49875 -22.91125 17.6225 -24.25 17.75 C-25.34634766 17.85441406 -25.34634766 17.85441406 -26.46484375 17.9609375 C-30.4532677 18.54087294 -34.37810879 19.50069084 -38.3125 20.375 C-38.3125 29.615 -38.3125 38.855 -38.3125 48.375 C-40.6225 49.365 -42.9325 50.355 -45.3125 51.375 C-43.9925 53.025 -42.6725 54.675 -41.3125 56.375 C-46.7575 56.87 -46.7575 56.87 -52.3125 57.375 C-51.301875 58.880625 -50.29125 60.38625 -49.25 61.9375 C-47.15203449 65.4456546 -46.31932197 66.96568154 -46.25 71.125 C-47.32647509 74.41774733 -48.61833002 77.35495787 -50.3125 80.375 C-50.6425 79.385 -50.9725 78.395 -51.3125 77.375 C-50.57 75.9209375 -50.57 75.9209375 -49.8125 74.4375 C-48.09525682 71.64549506 -48.09525682 71.64549506 -48.56640625 69.43359375 C-49.38486762 67.17532599 -50.43018707 65.38017573 -51.75 63.375 C-53.45403038 60.77063118 -54.96523665 58.18232083 -56.3125 55.375 C-53.6725 54.715 -51.0325 54.055 -48.3125 53.375 C-48.8075 51.89 -48.8075 51.89 -49.3125 50.375 C-43.6875 47.375 -43.6875 47.375 -40.3125 47.375 C-40.3125 38.795 -40.3125 30.215 -40.3125 21.375 C-40.9725 21.045 -41.6325 20.715 -42.3125 20.375 C-34.82348392 17.04467005 -27.32853659 15.03349033 -19.3125 13.375 C-21.6225 12.385 -23.9325 11.395 -26.3125 10.375 C-24.29240964 5.82979669 -21.80635784 2.40647327 -17.6875 -0.4375 C-11.67827743 -2.55185609 -5.86552192 -2.65001841 0 0 Z " fill="#D7DEE1" transform="translate(98.3125,34.625)"/>
<path d="M0 0 C2.24579147 1.49534135 4.11167216 3.27182841 6.015625 5.17578125 C6.015625 6.16578125 6.015625 7.15578125 6.015625 8.17578125 C4.365625 8.83578125 2.715625 9.49578125 1.015625 10.17578125 C1.345625 9.18578125 1.675625 8.19578125 2.015625 7.17578125 C2.675625 7.17578125 3.335625 7.17578125 4.015625 7.17578125 C1.23387257 4.08494522 -0.90935537 2.17189716 -4.984375 1.17578125 C-9.22742386 1.17578125 -12.81795159 1.52144616 -16.546875 3.61328125 C-18.21006051 5.06723143 -18.21006051 5.06723143 -17.984375 7.17578125 C-16.664375 7.83578125 -15.344375 8.49578125 -13.984375 9.17578125 C-13.984375 9.83578125 -13.984375 10.49578125 -13.984375 11.17578125 C-13.406875 10.82515625 -12.829375 10.47453125 -12.234375 10.11328125 C-9.62635724 9.02660718 -8.59019871 9.24512992 -5.984375 10.17578125 C-6.974375 10.67078125 -6.974375 10.67078125 -7.984375 11.17578125 C-6.994375 12.16578125 -6.004375 13.15578125 -4.984375 14.17578125 C-5.644375 14.17578125 -6.304375 14.17578125 -6.984375 14.17578125 C-4.59115259 19.41095528 -0.82339123 21.47466768 4.015625 24.17578125 C3.355625 23.18578125 2.695625 22.19578125 2.015625 21.17578125 C2.345625 20.18578125 2.675625 19.19578125 3.015625 18.17578125 C7.79298199 26.77075833 7.79298199 26.77075833 7.015625 31.17578125 C6.355625 31.83578125 5.695625 32.49578125 5.015625 33.17578125 C5.33889053 36.77257191 5.33889053 36.77257191 6.015625 40.17578125 C5.974375 39.26828125 5.933125 38.36078125 5.890625 37.42578125 C6.015625 34.17578125 6.015625 34.17578125 7.078125 32.17578125 C8.44268006 29.26473046 7.70795593 27.25980083 7.015625 24.17578125 C6.83 23.22703125 6.644375 22.27828125 6.453125 21.30078125 C6.30875 20.59953125 6.164375 19.89828125 6.015625 19.17578125 C7.45355892 19.48627851 8.8909568 19.79925885 10.328125 20.11328125 C11.12863281 20.28730469 11.92914063 20.46132813 12.75390625 20.640625 C15.015625 21.17578125 15.015625 21.17578125 18.015625 22.17578125 C18.510625 31.08578125 18.510625 31.08578125 19.015625 40.17578125 C19.345625 33.57578125 19.675625 26.97578125 20.015625 20.17578125 C18.13875 19.88703125 16.261875 19.59828125 14.328125 19.30078125 C10.27915561 18.67786288 6.7678834 17.83262262 3.015625 16.17578125 C3.015625 15.84578125 3.015625 15.51578125 3.015625 15.17578125 C9.96524952 15.73623484 15.11363418 17.105184 22.015625 19.17578125 C22.015625 28.41578125 22.015625 37.65578125 22.015625 47.17578125 C23.995625 47.83578125 25.975625 48.49578125 28.015625 49.17578125 C28.675625 49.83578125 29.335625 50.49578125 30.015625 51.17578125 C28.365625 52.16578125 26.715625 53.15578125 25.015625 54.17578125 C28.975625 54.50578125 32.935625 54.83578125 37.015625 55.17578125 C36.355625 56.49578125 35.695625 57.81578125 35.015625 59.17578125 C34.49457686 62.19786049 34.015625 65.10617366 34.015625 68.17578125 C34.345625 68.50578125 34.675625 68.83578125 35.015625 69.17578125 C35.47022358 71.83041246 35.71805738 74.49767263 36.015625 77.17578125 C35.025625 77.83578125 34.035625 78.49578125 33.015625 79.17578125 C33.00144531 78.48871094 32.98726562 77.80164063 32.97265625 77.09375 C32.82845433 74.36950285 32.62984557 71.83596189 32.015625 69.17578125 C29.53629303 67.40429753 29.53629303 67.40429753 27.015625 66.17578125 C26.703125 62.98828125 26.703125 62.98828125 27.015625 60.17578125 C28.005625 60.17578125 28.995625 60.17578125 30.015625 60.17578125 C30.015625 61.49578125 30.015625 62.81578125 30.015625 64.17578125 C31.005625 64.17578125 31.995625 64.17578125 33.015625 64.17578125 C33.015625 61.86578125 33.015625 59.55578125 33.015625 57.17578125 C28.560625 57.67078125 28.560625 57.67078125 24.015625 58.17578125 C23.685625 60.81578125 23.355625 63.45578125 23.015625 66.17578125 C22.685625 66.17578125 22.355625 66.17578125 22.015625 66.17578125 C21.78776042 64.125 21.55989583 62.07421875 21.33203125 60.0234375 C21.19675886 58.16437896 21.19675886 58.16437896 20.015625 57.17578125 C18.035625 57.17578125 16.055625 57.17578125 14.015625 57.17578125 C13.685625 63.77578125 13.355625 70.37578125 13.015625 77.17578125 C12.685625 77.17578125 12.355625 77.17578125 12.015625 77.17578125 C11.13284745 72.65762844 10.90972997 68.40065431 10.953125 63.80078125 C10.96214844 62.55554688 10.97117188 61.3103125 10.98046875 60.02734375 C10.99207031 59.08632812 11.00367188 58.1453125 11.015625 57.17578125 C10.025625 56.84578125 9.035625 56.51578125 8.015625 56.17578125 C8.015625 59.80578125 8.015625 63.43578125 8.015625 67.17578125 C5.82586727 63.89114466 5.01755937 60.9688185 4.015625 57.17578125 C3.355625 57.17578125 2.695625 57.17578125 2.015625 57.17578125 C2.015625 58.42875 2.015625 59.68171875 2.015625 60.97265625 C2.015625 79.17578125 2.015625 79.17578125 -0.296875 81.80078125 C-5.29000503 86.21331476 -5.29000503 86.21331476 -8.296875 86.05078125 C-12.05953101 84.82573046 -14.13657274 84.02358351 -16.984375 81.17578125 C-17.50677307 77.1312354 -17.32869775 73.23113812 -16.984375 69.17578125 C-14.984375 71.17578125 -14.984375 71.17578125 -14.859375 74.30078125 C-14.900625 75.24953125 -14.941875 76.19828125 -14.984375 77.17578125 C-13.664375 77.17578125 -12.344375 77.17578125 -10.984375 77.17578125 C-11.149375 76.10328125 -11.314375 75.03078125 -11.484375 73.92578125 C-11.984375 70.17578125 -11.984375 70.17578125 -11.984375 66.17578125 C-11.324375 66.17578125 -10.664375 66.17578125 -9.984375 66.17578125 C-9.984375 63.53578125 -9.984375 60.89578125 -9.984375 58.17578125 C-9.654375 58.17578125 -9.324375 58.17578125 -8.984375 58.17578125 C-8.984375 64.11578125 -8.984375 70.05578125 -8.984375 76.17578125 C-6.344375 75.84578125 -3.704375 75.51578125 -0.984375 75.17578125 C-0.654375 69.23578125 -0.324375 63.29578125 0.015625 57.17578125 C-1.634375 56.84578125 -3.284375 56.51578125 -4.984375 56.17578125 C-3.83846012 52.73803662 -3.02748902 52.00164966 0.015625 50.17578125 C1.335625 50.17578125 2.655625 50.17578125 4.015625 50.17578125 C3.685625 51.49578125 3.355625 52.81578125 3.015625 54.17578125 C4.335625 54.17578125 5.655625 54.17578125 7.015625 54.17578125 C7.675625 52.85578125 8.335625 51.53578125 9.015625 50.17578125 C9.015625 50.83578125 9.015625 51.49578125 9.015625 52.17578125 C9.77875 51.82515625 10.541875 51.47453125 11.328125 51.11328125 C14.015625 50.17578125 14.015625 50.17578125 17.015625 51.17578125 C16.025625 51.67078125 16.025625 51.67078125 15.015625 52.17578125 C18.13853135 51.68999582 21.01142859 51.17718005 24.015625 50.17578125 C20.055625 48.19578125 16.095625 46.21578125 12.015625 44.17578125 C12.015625 43.51578125 12.015625 42.85578125 12.015625 42.17578125 C10.695625 41.84578125 9.375625 41.51578125 8.015625 41.17578125 C6.365625 43.81578125 4.715625 46.45578125 3.015625 49.17578125 C0.87547521 44.89548167 0.85745521 44.28805371 1.890625 39.92578125 C2.09429687 39.03375 2.29796875 38.14171875 2.5078125 37.22265625 C2.67539063 36.5471875 2.84296875 35.87171875 3.015625 35.17578125 C1.695625 35.17578125 0.375625 35.17578125 -0.984375 35.17578125 C-0.984375 38.14578125 -0.984375 41.11578125 -0.984375 44.17578125 C-1.974375 44.67078125 -1.974375 44.67078125 -2.984375 45.17578125 C-3.77331634 36.14678597 -3.77331634 36.14678597 -0.546875 32.17578125 C0.29875 31.51578125 1.144375 30.85578125 2.015625 30.17578125 C2.345625 29.51578125 2.675625 28.85578125 3.015625 28.17578125 C4.005625 27.84578125 4.995625 27.51578125 6.015625 27.17578125 C5.355625 27.13453125 4.695625 27.09328125 4.015625 27.05078125 C-0.37351455 25.77061555 -3.46964029 23.02768758 -6.984375 20.17578125 C-9.85304731 21.55842962 -12.54461532 23.09726678 -15.234375 24.80078125 C-15.94078125 25.24679688 -16.6471875 25.6928125 -17.375 26.15234375 C-17.90609375 26.49007812 -18.4371875 26.8278125 -18.984375 27.17578125 C-19.314375 26.51578125 -19.644375 25.85578125 -19.984375 25.17578125 C-19.324375 25.17578125 -18.664375 25.17578125 -17.984375 25.17578125 C-17.943125 24.45390625 -17.901875 23.73203125 -17.859375 22.98828125 C-16.60085335 18.94303308 -14.34848383 17.68096868 -10.984375 15.17578125 C-11.974375 14.84578125 -12.964375 14.51578125 -13.984375 14.17578125 C-14.438125 13.53640625 -14.891875 12.89703125 -15.359375 12.23828125 C-17.31745147 9.75303034 -19.01689631 9.13820677 -21.984375 8.17578125 C-20.53973547 4.80495567 -18.73774375 2.59540833 -15.984375 0.17578125 C-11.04108869 -1.47198085 -4.90831094 -2.03868821 0 0 Z " fill="#0E1011" transform="translate(96.984375,35.82421875)"/>
<path d="M0 0 C-1.81854504 3.51585374 -3.89454567 4.52473178 -7.5 5.75 C-10.2242782 6.60360717 -12.1161841 7 -15 7 C-15 14.59 -15 22.18 -15 30 C-16.98 30.99 -16.98 30.99 -19 32 C-19 22.76 -19 13.52 -19 4 C-6.44736842 -0.18421053 -6.44736842 -0.18421053 0 0 Z M-6 25 C-3.71315977 27.15232021 -1.94963331 29.36056945 -0.25 32 C0.19859375 32.680625 0.6471875 33.36125 1.109375 34.0625 C2 36 2 36 1 39 C0.401875 38.67 -0.19625 38.34 -0.8125 38 C-3.05386471 36.79212012 -3.05386471 36.79212012 -6 37 C-7.33981486 36.6937566 -8.67511887 36.36548445 -10 36 C-9.67 34.68 -9.34 33.36 -9 32 C-10.65 32.66 -12.3 33.32 -14 34 C-12.7625 34.928125 -12.7625 34.928125 -11.5 35.875 C-10.2625 36.926875 -10.2625 36.926875 -9 38 C-9 38.66 -9 39.32 -9 40 C-7.35 40.66 -5.7 41.32 -4 42 C-4 43.98 -4 45.96 -4 48 C-4.99 48 -5.98 48 -7 48 C-7 46.68 -7 45.36 -7 44 C-7.99 44 -8.98 44 -10 44 C-10 48.95 -10 53.9 -10 59 C-9.01 59 -8.02 59 -7 59 C-7 57.68 -7 56.36 -7 55 C-6.01 55 -5.02 55 -4 55 C-4 56.98 -4 58.96 -4 61 C-7.9634755 63.59150321 -8.65653925 62.89057679 -14 62 C-14.33 56.06 -14.66 50.12 -15 44 C-15.66 44 -16.32 44 -17 44 C-17.68025637 45.99541868 -18.34490497 47.99617991 -19 50 C-19.268125 50.680625 -19.53625 51.36125 -19.8125 52.0625 C-20.09519471 54.98367869 -18.5446412 56.59035972 -17 59 C-17 59.99 -17 60.98 -17 62 C-16.34 62 -15.68 62 -15 62 C-15 62.66 -15 63.32 -15 64 C-16.65 64 -18.3 64 -20 64 C-20.66 62.35 -21.32 60.7 -22 59 C-23.89213369 61.38573379 -25.02391783 63.07175348 -26 66 C-27.485 66.495 -27.485 66.495 -29 67 C-29 66.34 -29 65.68 -29 65 C-29.66 65 -30.32 65 -31 65 C-30.77183594 64.43152344 -30.54367188 63.86304688 -30.30859375 63.27734375 C-28.38161971 58.10130138 -27.43611396 54.47360114 -29 49 C-30.5246085 45.88579968 -32.2122615 42.97956416 -34 40 C-28.555 39.505 -28.555 39.505 -23 39 C-24.32 37.68 -25.64 36.36 -27 35 C-22.93204389 32.77230975 -19.56701176 31.66602255 -15 31 C-11.7447571 30.22148021 -11.7447571 30.22148021 -9 29 C-8.67 28.01 -8.34 27.02 -8 26 C-7.34 25.67 -6.68 25.34 -6 25 Z " fill="#0D0E10" transform="translate(79,51)"/>
<path d="M0 0 C5.15799314 0.89272958 8.35958077 4.23000911 12.25 7.5625 C14.90927554 9.77409544 14.90927554 9.77409544 17.11328125 9.44140625 C19.98845228 8.25874906 22.03455528 6.46604568 24.4375 4.5 C28.77232898 1.29050411 31.50224942 -0.38079135 36.90234375 0.1484375 C38.06443359 0.35339844 38.06443359 0.35339844 39.25 0.5625 C40.24128906 0.71976562 41.23257813 0.87703125 42.25390625 1.0390625 C44.93220491 1.49741757 47.59067095 2.00578065 50.25 2.5625 C50.25 3.8825 50.25 5.2025 50.25 6.5625 C40.24318022 15.05991121 25.80127766 18.4349343 12.9296875 18.01171875 C1.80806133 16.65398307 -8.59707787 13.10672688 -17.75 6.5625 C-17.42 5.2425 -17.09 3.9225 -16.75 2.5625 C-11.17810404 1.62407542 -5.58736887 0.83810533 0 0 Z " fill="#0A0D10" transform="translate(72.75,116.4375)"/>
<path d="M0 0 C-0.1875 1.8125 -0.1875 1.8125 -1 4 C-5.17857143 7 -5.17857143 7 -8 7 C-7.67 9.31 -7.34 11.62 -7 14 C-6.95875 13.236875 -6.9175 12.47375 -6.875 11.6875 C-6.58625 10.800625 -6.2975 9.91375 -6 9 C-4 8 -2 7 0 6 C0.96906827 3.41585574 0.96906827 3.41585574 1 1 C1.66 1 2.32 1 3 1 C3 6.28 3 11.56 3 17 C-1.455 18.485 -1.455 18.485 -6 20 C-5.34 21.32 -4.68 22.64 -4 24 C-6.64 24.66 -9.28 25.32 -12 26 C-11.59007812 26.61488281 -11.18015625 27.22976562 -10.7578125 27.86328125 C-4 38 -4 38 -4.1875 39.75 C-5.32429111 42.89803691 -6.64598549 45.93874979 -8 49 C-10.65543022 45.79517042 -12.97154225 42.63432014 -15 39 C-15.34289063 38.401875 -15.68578125 37.80375 -16.0390625 37.1875 C-16.39742187 36.5275 -16.75578125 35.8675 -17.125 35.1875 C-17.62386719 34.28064453 -17.62386719 34.28064453 -18.1328125 33.35546875 C-20.41695516 27.15124341 -20.18208615 20.22201823 -20.1875 13.6875 C-20.19974609 12.89021484 -20.21199219 12.09292969 -20.22460938 11.27148438 C-20.2345502 7.33160359 -20.23353688 5.35030532 -18 2 C-16.11732015 3.88267985 -16.59379463 6.57062042 -16.37890625 9.08984375 C-16.13777773 11.2328948 -16.13777773 11.2328948 -14 13 C-11.60236815 10.60236815 -11.65719414 9.66726502 -11.375 6.375 C-11.30023438 5.55773437 -11.22546875 4.74046875 -11.1484375 3.8984375 C-11.09945312 3.27195312 -11.05046875 2.64546875 -11 2 C-3.57142857 -1.57142857 -3.57142857 -1.57142857 0 0 Z " fill="#070A0D" transform="translate(55,65)"/>
<path d="M0 0 C0 0.66 0 1.32 0 2 C0.66 2 1.32 2 2 2 C2 2.66 2 3.32 2 4 C2.99 3.67 3.98 3.34 5 3 C5.99 3.33 6.98 3.66 8 4 C8 4.66 8 5.32 8 6 C8.66 6.33 9.32 6.66 10 7 C8.26356399 8.73643601 5.73974249 8.20981267 3.375 8.3125 C-2.30278776 8.76375953 -5.49370652 9.50532342 -10 13 C-11.89390943 15.25143315 -13.41640504 17.50463825 -15 20 C-14.236875 20.103125 -13.47375 20.20625 -12.6875 20.3125 C-10 21 -10 21 -7 24 C-14.92 25.485 -14.92 25.485 -23 27 C-26 22 -26 22 -26 20 C-26.61875 19.7525 -27.2375 19.505 -27.875 19.25 C-30.37480203 17.77952822 -30.83316022 16.58596924 -32 14 C-30.25595212 12.98965502 -28.50450439 11.99207578 -26.75 11 C-25.77546875 10.443125 -24.8009375 9.88625 -23.796875 9.3125 C-21 8 -21 8 -17 8 C-17 7.34 -17 6.68 -17 6 C-17.99 5.67 -18.98 5.34 -20 5 C-20 4.34 -20 3.68 -20 3 C-17.60743751 2.29878357 -15.21209511 1.61385099 -12.8125 0.9375 C-12.13896484 0.73833984 -11.46542969 0.53917969 -10.77148438 0.33398438 C-6.82583684 -0.76309811 -3.94448706 -1.21781251 0 0 Z " fill="#141519" transform="translate(87,25)"/>
<path d="M0 0 C-0.33 0.70125 -0.66 1.4025 -1 2.125 C-3.13678018 8.26824301 -1.52033971 13.89149226 0 20 C0.08948558 15.52572076 -0.14256349 11.39436211 -1 7 C1.4375 7.8125 1.4375 7.8125 4 9 C4.33 9.99 4.66 10.98 5 12 C6.01320313 12.67482422 6.01320313 12.67482422 7.046875 13.36328125 C9 15 9 15 9.390625 17.48046875 C9.32101563 18.82044922 9.32101563 18.82044922 9.25 20.1875 C9.21390625 21.08855469 9.1778125 21.98960938 9.140625 22.91796875 C9.07101563 23.94857422 9.07101563 23.94857422 9 25 C7.35 23.68 5.7 22.36 4 21 C4.95117134 22.1725131 5.91117009 23.33787015 6.875 24.5 C7.40867187 25.1496875 7.94234375 25.799375 8.4921875 26.46875 C8.98976563 26.9740625 9.48734375 27.479375 10 28 C10.66 28 11.32 28 12 28 C12 28.66 12 29.32 12 30 C11.34 30 10.68 30 10 30 C9.67 31.32 9.34 32.64 9 34 C4.85892869 31.87655458 2.94735926 29.85922473 0.6875 25.8125 C0.17574219 24.91144531 -0.33601563 24.01039062 -0.86328125 23.08203125 C-1.42595703 22.05142578 -1.42595703 22.05142578 -2 21 C-5.05953577 21.74648012 -5.05953577 21.74648012 -6.75 23.9375 C-9.6136266 26.56249105 -12.26033234 27.13699977 -16 28 C-15.5155542 27.61481201 -15.0311084 27.22962402 -14.53198242 26.83276367 C-12.48924672 24.38896815 -12.57554405 22.83469462 -12.48828125 19.67578125 C-12.45283203 18.64775391 -12.41738281 17.61972656 -12.38085938 16.56054688 C-12.35830078 15.48869141 -12.33574219 14.41683594 -12.3125 13.3125 C-12.27833984 12.22904297 -12.24417969 11.14558594 -12.20898438 10.02929688 C-12.1264544 7.3529678 -12.05732063 4.67696841 -12 2 C-10.56656 1.46809459 -9.12804633 0.94984742 -7.6875 0.4375 C-6.48673828 0.00244141 -6.48673828 0.00244141 -5.26171875 -0.44140625 C-3 -1 -3 -1 0 0 Z " fill="#080B12" transform="translate(76,56)"/>
<path d="M0 0 C3.53171849 0.58993071 5.33005495 1.90125873 7.9375 4.3125 C10.2471896 6.42359946 12.49085327 8.36813996 15 10.25 C15.66 10.8275 16.32 11.405 17 12 C17 12.99 17 13.98 17 15 C16.34 15 15.68 15 15 15 C15.103125 15.763125 15.20625 16.52625 15.3125 17.3125 C15.209375 18.199375 15.10625 19.08625 15 20 C12.6167054 21.81883009 11.04181663 23 8 23 C7.67 26.96 7.34 30.92 7 35 C6.67 35 6.34 35 6 35 C6 30.38 6 25.76 6 21 C7.98 20.01 9.96 19.02 12 18 C13.40466953 15.94906855 13.40466953 15.94906855 14 14 C10.27091669 14.50199198 6.63852314 15.04207023 3 16 C3.03480469 16.61488281 3.06960937 17.22976562 3.10546875 17.86328125 C3.13253906 18.67152344 3.15960938 19.47976562 3.1875 20.3125 C3.22230469 21.11300781 3.25710937 21.91351563 3.29296875 22.73828125 C2.93801608 25.47851584 2.10633718 26.29171079 0 28 C-1.4375 27 -1.4375 27 -3 25 C-3.31421917 23.05184116 -3.62710073 21.09949115 -3.7890625 19.1328125 C-3.94211363 16.93575965 -3.94211363 16.93575965 -4.67578125 14.63671875 C-5.11569541 11.05910362 -4.03182761 8.94869055 -2.5625 5.6875 C-1.85287109 4.08455078 -1.85287109 4.08455078 -1.12890625 2.44921875 C-0.75636719 1.64097656 -0.38382813 0.83273438 0 0 Z " fill="#454749" transform="translate(41,51)"/>
<path d="M0 0 C1.32 0.66 2.64 1.32 4 2 C3.071875 2.53625 2.14375 3.0725 1.1875 3.625 C-2.24016479 6.17894631 -3.4037685 8.09810078 -5 12 C-1.56404834 10.47291037 1.11912454 8.40072955 4 6 C7.55038751 7.70768079 10.79398379 9.74198184 14.09765625 11.87890625 C16.10493004 13.15121193 16.10493004 13.15121193 19 14 C18.67 14.66 18.34 15.32 18 16 C17.34 15.67 16.68 15.34 16 15 C15.731875 15.78375 15.46375 16.5675 15.1875 17.375 C14 20 14 20 11 22 C10.63637182 24.20725073 10.63637182 24.20725073 10.8125 26.625 C10.874375 28.06875 10.93625 29.5125 11 31 C11.33 28.03 11.66 25.06 12 22 C13.32 22 14.64 22 16 22 C16.58925376 25.36716432 16.45322469 27.35154005 14.4765625 30.1796875 C12.7129738 32.20241577 10.95078017 34.15681682 9 36 C8.67 36 8.34 36 8 36 C8.33 30.72 8.66 25.44 9 20 C10.65 19.34 12.3 18.68 14 18 C14 17.01 14 16.02 14 15 C10.98434837 16.00574976 10.98434837 16.00574976 8 18 C6.55032098 21.5693717 6.55032098 21.5693717 6 25 C5.34 24.34 4.68 23.68 4 23 C4.66 23 5.32 23 6 23 C6 18.05 6 13.1 6 8 C3.69 9.65 1.38 11.3 -1 13 C0.65 13.99 2.3 14.98 4 16 C3.67 16.66 3.34 17.32 3 18 C1.02 17.01 -0.96 16.02 -3 15 C-3 15.99 -3 16.98 -3 18 C-0.525 18.99 -0.525 18.99 2 20 C2.33 25.28 2.66 30.56 3 36 C-3.875 30.25 -3.875 30.25 -5 28 C-5.13415472 25.3276379 -5.04318541 22.67749512 -5 20 C-4.67 20 -4.34 20 -4 20 C-3.81824219 20.93972656 -3.81824219 20.93972656 -3.6328125 21.8984375 C-3.46523437 22.71570313 -3.29765625 23.53296875 -3.125 24.375 C-2.96257812 25.18710938 -2.80015625 25.99921875 -2.6328125 26.8359375 C-2.13341068 29.18673923 -2.13341068 29.18673923 0 31 C0.2288964 27.96712265 0.36130698 25.02527187 0 22 C-1.82437884 20.06788056 -1.82437884 20.06788056 -4 19 C-4.33 18.01 -4.66 17.02 -5 16 C-5.66 15.67 -6.32 15.34 -7 15 C-7.33 15.66 -7.66 16.32 -8 17 C-8.95681647 14.44848941 -9.2094162 12.63707941 -8.3515625 10.02734375 C-6.28277185 5.60013175 -4.14609642 2.76406428 0 0 Z " fill="#D1C9BC" transform="translate(84,49)"/>
<path d="M0 0 C1.65234375 1.0390625 1.65234375 1.0390625 4.08984375 3.1015625 C4.08984375 3.7615625 4.08984375 4.4215625 4.08984375 5.1015625 C3.09984375 5.5965625 3.09984375 5.5965625 2.08984375 6.1015625 C1.04893715 7.74299213 0.04480049 9.40868465 -0.91015625 11.1015625 C-0.27078125 11.8028125 0.36859375 12.5040625 1.02734375 13.2265625 C3.25370477 16.32997483 3.74065318 18.34776389 4.08984375 22.1015625 C-0.42071247 20.6422649 -3.52515964 18.40962737 -6.91015625 15.1015625 C-7.66015625 12.4140625 -7.66015625 12.4140625 -7.91015625 10.1015625 C-8.57015625 9.4415625 -9.23015625 8.7815625 -9.91015625 8.1015625 C-12.01836422 8.4200802 -12.01836422 8.4200802 -13.91015625 9.1015625 C-13.91015625 8.4415625 -13.91015625 7.7815625 -13.91015625 7.1015625 C-16.38515625 6.1115625 -16.38515625 6.1115625 -18.91015625 5.1015625 C-17.89855512 2.16791923 -16.91480467 1.10485041 -14.34765625 -0.7109375 C-9.35689025 -2.4350203 -4.82697214 -2.27035499 0 0 Z " fill="#1E2024" transform="translate(96.91015625,37.8984375)"/>
<path d="M0 0 C0.33 0 0.66 0 1 0 C1 22 1 22 -1.3125 24.625 C-6.30563003 29.03753351 -6.30563003 29.03753351 -9.3125 28.875 C-13.07515601 27.64994921 -15.15219774 26.84780226 -18 24 C-18.52239807 19.95545415 -18.34432275 16.05535687 -18 12 C-16 14 -16 14 -15.875 17.125 C-15.91625 18.07375 -15.9575 19.0225 -16 20 C-14.68 20 -13.36 20 -12 20 C-12.165 18.9275 -12.33 17.855 -12.5 16.75 C-13 13 -13 13 -13 9 C-12.34 9 -11.68 9 -11 9 C-11 6.36 -11 3.72 -11 1 C-10.67 1 -10.34 1 -10 1 C-10 6.94 -10 12.88 -10 19 C-2.71626405 18.92091092 -2.71626405 18.92091092 -1 17 C-0.76298761 14.14122091 -0.57780818 11.30116703 -0.4375 8.4375 C-0.39431641 7.63119141 -0.35113281 6.82488281 -0.30664062 5.99414062 C-0.20024738 3.99631195 -0.09959112 1.9981793 0 0 Z " fill="#151619" transform="translate(98,93)"/>
<path d="M0 0 C3.0625 0.1875 3.0625 0.1875 5.0625 2.1875 C5.28955078 4.25048828 5.28955078 4.25048828 5.2578125 6.7578125 C5.24814453 8.10166016 5.24814453 8.10166016 5.23828125 9.47265625 C5.22152344 10.40980469 5.20476562 11.34695312 5.1875 12.3125 C5.17847656 13.25738281 5.16945313 14.20226562 5.16015625 15.17578125 C5.13654522 17.51327292 5.10361516 19.85026123 5.0625 22.1875 C1.29625329 23.44291557 -0.30938934 22.55811958 -3.9375 21.1875 C-3.96638146 17.87501813 -3.98425799 14.56256833 -4 11.25 C-4.00837891 10.30447266 -4.01675781 9.35894531 -4.02539062 8.38476562 C-4.02861328 7.48564453 -4.03183594 6.58652344 -4.03515625 5.66015625 C-4.04039307 4.82750244 -4.04562988 3.99484863 -4.05102539 3.13696289 C-3.86464296 -0.06360429 -3.25312329 0.20764617 0 0 Z " fill="#F6F6F6" transform="translate(113.9375,91.8125)"/>
<path d="M0 0 C0 0.99 0 1.98 0 3 C-6.6 4.32 -13.2 5.64 -20 7 C-20 16.24 -20 25.48 -20 35 C-22.31 35.99 -24.62 36.98 -27 38 C-25.68 39.65 -24.36 41.3 -23 43 C-28.445 43.495 -28.445 43.495 -34 44 C-32.989375 45.505625 -31.97875 47.01125 -30.9375 48.5625 C-28.83953449 52.0706546 -28.00682197 53.59068154 -27.9375 57.75 C-29.01397509 61.04274733 -30.30583002 63.97995787 -32 67 C-32.33 66.01 -32.66 65.02 -33 64 C-32.2575 62.5459375 -32.2575 62.5459375 -31.5 61.0625 C-29.78275682 58.27049506 -29.78275682 58.27049506 -30.25390625 56.05859375 C-31.07236762 53.80032599 -32.11768707 52.00517573 -33.4375 50 C-35.14153038 47.39563118 -36.65273665 44.80732083 -38 42 C-35.36 41.34 -32.72 40.68 -30 40 C-30.495 38.515 -30.495 38.515 -31 37 C-25.375 34 -25.375 34 -22 34 C-22 25.42 -22 16.84 -22 8 C-22.66 7.67 -23.32 7.34 -24 7 C-16.21323332 3.46545383 -8.38263675 1.594392 0 0 Z " fill="#C2E4F3" transform="translate(80,48)"/>
<path d="M0 0 C3.0625 0.125 3.0625 0.125 5.0625 1.125 C5.08933987 4.10422593 5.10926037 7.08321295 5.125 10.0625 C5.13337891 10.91263672 5.14175781 11.76277344 5.15039062 12.63867188 C5.15361328 13.44755859 5.15683594 14.25644531 5.16015625 15.08984375 C5.16539307 15.8387085 5.17062988 16.58757324 5.17602539 17.35913086 C5.0625 19.125 5.0625 19.125 4.0625 20.125 C1.39191149 20.26615161 -1.26182238 20.16747107 -3.9375 20.125 C-3.96638514 16.97918577 -3.98425923 13.83340531 -4 10.6875 C-4.00837891 9.78966797 -4.01675781 8.89183594 -4.02539062 7.96679688 C-4.02861328 7.11279297 -4.03183594 6.25878906 -4.03515625 5.37890625 C-4.04301147 4.19276733 -4.04301147 4.19276733 -4.05102539 2.98266602 C-3.85926151 -0.15525093 -3.18379988 0.13548085 0 0 Z " fill="#747575" transform="translate(91.9375,91.875)"/>
<path d="M0 0 C1.32 0.66 2.64 1.32 4 2 C4 2.66 4 3.32 4 4 C5.2684375 4.37125 5.2684375 4.37125 6.5625 4.75 C10.38427474 6.13973627 13.51868063 7.91120838 17 10 C13.46588679 12.12046792 10.05606165 12.53199289 6 13 C6 12.34 6 11.68 6 11 C3.56282742 11.27034634 3.56282742 11.27034634 1 12 C0.01 13.485 0.01 13.485 -1 15 C-3.625 15.1875 -3.625 15.1875 -6 15 C-5.34 13.35 -4.68 11.7 -4 10 C-4.721875 10.28875 -5.44375 10.5775 -6.1875 10.875 C-10.09375 12.4375 -10.09375 12.4375 -14 14 C-8.71428571 7.57142857 -8.71428571 7.57142857 -6 5 C-5.67 5.99 -5.34 6.98 -5 8 C-3.35 5.36 -1.7 2.72 0 0 Z " fill="#4E4C49" transform="translate(105,76)"/>
<path d="M0 0 C2.24579147 1.49534135 4.11167216 3.27182841 6.015625 5.17578125 C6.015625 6.16578125 6.015625 7.15578125 6.015625 8.17578125 C4.365625 8.83578125 2.715625 9.49578125 1.015625 10.17578125 C1.345625 9.18578125 1.675625 8.19578125 2.015625 7.17578125 C2.675625 7.17578125 3.335625 7.17578125 4.015625 7.17578125 C1.23387257 4.08494522 -0.90935537 2.17189716 -4.984375 1.17578125 C-9.22742386 1.17578125 -12.81795159 1.52144616 -16.546875 3.61328125 C-18.21006051 5.06723143 -18.21006051 5.06723143 -17.984375 7.17578125 C-16.664375 7.83578125 -15.344375 8.49578125 -13.984375 9.17578125 C-13.984375 9.83578125 -13.984375 10.49578125 -13.984375 11.17578125 C-13.406875 10.82515625 -12.829375 10.47453125 -12.234375 10.11328125 C-9.62635724 9.02660718 -8.59019871 9.24512992 -5.984375 10.17578125 C-6.974375 10.67078125 -6.974375 10.67078125 -7.984375 11.17578125 C-6.994375 12.16578125 -6.004375 13.15578125 -4.984375 14.17578125 C-5.644375 14.17578125 -6.304375 14.17578125 -6.984375 14.17578125 C-5.994375 16.15578125 -5.004375 18.13578125 -3.984375 20.17578125 C-4.974375 20.17578125 -5.964375 20.17578125 -6.984375 20.17578125 C-9.90303117 21.44527804 -12.54910408 23.10010967 -15.234375 24.80078125 C-15.94078125 25.24679688 -16.6471875 25.6928125 -17.375 26.15234375 C-17.90609375 26.49007812 -18.4371875 26.8278125 -18.984375 27.17578125 C-19.314375 26.51578125 -19.644375 25.85578125 -19.984375 25.17578125 C-19.324375 25.17578125 -18.664375 25.17578125 -17.984375 25.17578125 C-17.943125 24.45390625 -17.901875 23.73203125 -17.859375 22.98828125 C-16.60085335 18.94303308 -14.34848383 17.68096868 -10.984375 15.17578125 C-11.974375 14.84578125 -12.964375 14.51578125 -13.984375 14.17578125 C-14.438125 13.53640625 -14.891875 12.89703125 -15.359375 12.23828125 C-17.31745147 9.75303034 -19.01689631 9.13820677 -21.984375 8.17578125 C-20.53973547 4.80495567 -18.73774375 2.59540833 -15.984375 0.17578125 C-11.04108869 -1.47198085 -4.90831094 -2.03868821 0 0 Z " fill="#121518" transform="translate(96.984375,35.82421875)"/>
<path d="M0 0 C2.97 0 5.94 0 9 0 C10 1 10 1 10.09765625 2.92578125 C10.08605469 3.71339844 10.07445313 4.50101562 10.0625 5.3125 C10.05347656 6.09238281 10.04445313 6.87226562 10.03515625 7.67578125 C10.02355469 8.44277344 10.01195313 9.20976563 10 10 C10 11.32 10 12.64 10 14 C10 16.33333333 10 18.66666667 10 21 C8.68 21 7.36 21 6 21 C5.67 19.02 5.34 17.04 5 15 C4.67 16.98 4.34 18.96 4 21 C2.68 20.67 1.36 20.34 0 20 C0 13.4 0 6.8 0 0 Z " fill="#EBECEC" transform="translate(76,92)"/>
<path d="M0 0 C1.98 0 3.96 0 6 0 C5.61585937 0.73605469 5.23171875 1.47210938 4.8359375 2.23046875 C4.11277344 3.69419922 4.11277344 3.69419922 3.375 5.1875 C2.88773438 6.15042969 2.40046875 7.11335938 1.8984375 8.10546875 C0.80639399 11.62374806 1.35336937 12.79340352 3 16 C3.36871088 17.65919896 3.71281674 19.3247643 4 21 C4.66 21 5.32 21 6 21 C6 21.66 6 22.32 6 23 C4.35 23 2.7 23 1 23 C0.34 21.35 -0.32 19.7 -1 18 C-2.89213369 20.38573379 -4.02391783 22.07175348 -5 25 C-5.99 25.33 -6.98 25.66 -8 26 C-7.23893805 19.53097345 -7.23893805 19.53097345 -5.875 16.5 C-4.23641077 11.8183165 -5.57133981 7.94305242 -7.5625 3.5625 C-8.036875 2.716875 -8.51125 1.87125 -9 1 C-7.68 1 -6.36 1 -5 1 C-4.01 2.98 -3.02 4.96 -2 7 C-0.62446506 3.57330419 -0.62446506 3.57330419 0 0 Z " fill="#ECECEC" transform="translate(58,92)"/>
<path d="M0 0 C2.4375 0.8125 2.4375 0.8125 5 2 C5.33 2.99 5.66 3.98 6 5 C6.67546875 5.44988281 7.3509375 5.89976563 8.046875 6.36328125 C10 8 10 8 10.390625 10.48046875 C10.32101563 11.82044922 10.32101563 11.82044922 10.25 13.1875 C10.21390625 14.08855469 10.1778125 14.98960938 10.140625 15.91796875 C10.07101563 16.94857422 10.07101563 16.94857422 10 18 C8.35 16.68 6.7 15.36 5 14 C5.95117134 15.1725131 6.91117009 16.33787015 7.875 17.5 C8.40867187 18.1496875 8.94234375 18.799375 9.4921875 19.46875 C9.98976563 19.9740625 10.48734375 20.479375 11 21 C11.66 21 12.32 21 13 21 C13 21.66 13 22.32 13 23 C12.34 23 11.68 23 11 23 C10.67 24.32 10.34 25.64 10 27 C5.65503588 24.80125305 3.67789306 22.4631551 1.1875 18.3125 C0.58292969 17.31863281 -0.02164063 16.32476562 -0.64453125 15.30078125 C-1.09183594 14.54152344 -1.53914063 13.78226563 -2 13 C-1.34 12.01 -0.68 11.02 0 10 C0.33 10.99 0.66 11.98 1 13 C1.08948558 8.52572076 0.85743651 4.39436211 0 0 Z " fill="#111315" transform="translate(75,63)"/>
<path d="M0 0 C0 6.27 0 12.54 0 19 C1.98 19.33 3.96 19.66 6 20 C5.67 20.66 5.34 21.32 5 22 C2.7436493 22.42032924 0.46755046 22.73700757 -1.8125 23 C-7.67615755 23.65095444 -7.67615755 23.65095444 -13 26 C-13.33 25.01 -13.66 24.02 -14 23 C-13.34 23 -12.68 23 -12 23 C-11.896875 22.2575 -11.79375 21.515 -11.6875 20.75 C-10.95746496 17.82985982 -9.93210602 16.26812446 -8 14 C-6.5393715 16.64738916 -6 17.89448334 -6 21 C-4.35 21 -2.7 21 -1 21 C-1 20.34 -1 19.68 -1 19 C-1.66 19 -2.32 19 -3 19 C-7.21786492 12.1328976 -7.21786492 12.1328976 -6.375 7.75 C-5.92125 6.8425 -5.4675 5.935 -5 5 C-4.67 4.236875 -4.34 3.47375 -4 2.6875 C-2.96126367 0.93463244 -2.17083606 0 0 0 Z " fill="#060708" transform="translate(65,94)"/>
<path d="M0 0 C1.32 0.33 2.64 0.66 4 1 C4.66 3.31 5.32 5.62 6 8 C6.33 5.36 6.66 2.72 7 0 C8.32 0.33 9.64 0.66 11 1 C10.67 7.6 10.34 14.2 10 21 C9.01 21 8.02 21 7 21 C6.34 19.35 5.68 17.7 5 16 C4.67 17.65 4.34 19.3 4 21 C2.68 21 1.36 21 0 21 C0 14.07 0 7.14 0 0 Z " fill="#F7F7F7" transform="translate(98,92)"/>
<path d="M0 0 C0.33 0 0.66 0 1 0 C2.01894076 5.84888043 2.11798453 11.50919169 2.0625 17.4375 C2.05798828 18.35982422 2.05347656 19.28214844 2.04882812 20.23242188 C2.03713938 22.48835048 2.02075455 24.74413967 2 27 C3.33333333 27.33333333 4.66666667 27.66666667 6 28 C7.33333333 28.33333333 8.66666667 28.66666667 10 29 C10.1546875 30.175625 10.1546875 30.175625 10.3125 31.375 C10.77595022 34.33045181 10.77595022 34.33045181 14 36 C11.03 36 8.06 36 5 36 C5.66 34.68 6.32 33.36 7 32 C6.2575 31.87625 5.515 31.7525 4.75 31.625 C2 31 2 31 -2 29 C-2 20.42 -2 11.84 -2 3 C-1.34 3 -0.68 3 0 3 C0 2.01 0 1.02 0 0 Z " fill="#0B0D0E" transform="translate(123,53)"/>
<path d="M0 0 C1.32 0.33 2.64 0.66 4 1 C3.67 9.91 3.34 18.82 3 28 C5.97 28.99 8.94 29.98 12 31 C11.505 32.485 11.505 32.485 11 34 C10.34 34 9.68 34 9 34 C9 34.66 9 35.32 9 36 C12.3 36 15.6 36 19 36 C17 40 17 40 16 41 C15.08303876 46.70553659 14.87977358 52.22913206 15 58 C14.67 58 14.34 58 14 58 C13.87625 56.906875 13.7525 55.81375 13.625 54.6875 C13.24535199 50.92618198 13.24535199 50.92618198 11 48 C11.66 48 12.32 48 13 48 C12.95875 46.906875 12.9175 45.81375 12.875 44.6875 C13 41 13 41 15 38 C11.04 37.67 7.08 37.34 3 37 C4.25541557 34.48916886 5.50063488 34.12874554 8 33 C6.86433594 32.64421875 5.72867188 32.2884375 4.55859375 31.921875 C2.62060547 30.81445312 2.62060547 30.81445312 1 29 C-0.07561467 24.11553598 0.01938946 19.2283821 0.0625 14.25 C0.04938728 12.87106004 0.03314552 11.49214605 0.01367188 10.11328125 C-0.02169988 6.74117433 -0.02502789 3.37211194 0 0 Z " fill="#C8CDD1" transform="translate(118,54)"/>
<path d="M0 0 C2.97 0 5.94 0 9 0 C9 2.31 9 4.62 9 7 C8.01 7 7.02 7 6 7 C6 5.68 6 4.36 6 3 C5.01 3 4.02 3 3 3 C3 4.98 3 6.96 3 9 C3.804375 9.309375 4.60875 9.61875 5.4375 9.9375 C8 11 8 11 9 12 C9.07226502 13.85287502 9.0838122 15.70833878 9.0625 17.5625 C9.05347656 18.57441406 9.04445312 19.58632812 9.03515625 20.62890625 C9.02355469 21.41136719 9.01195312 22.19382812 9 23 C5.28272326 24.13583456 3.52948291 23.66670026 0 22 C0 19.69 0 17.38 0 15 C0.99 15 1.98 15 3 15 C3 16.65 3 18.3 3 20 C3.99 20 4.98 20 6 20 C6 17.69 6 15.38 6 13 C5.195625 12.690625 4.39125 12.38125 3.5625 12.0625 C1 11 1 11 0 10 C-0.07205511 8.31391034 -0.08386068 6.62499341 -0.0625 4.9375 C-0.05347656 4.01839844 -0.04445313 3.09929687 -0.03515625 2.15234375 C-0.02355469 1.44207031 -0.01195313 0.73179688 0 0 Z " fill="#F6F6F6" transform="translate(121,93)"/>
<path d="M0 0 C5.08888672 0.59789323 8.1686988 4.31221756 11.92578125 7.5703125 C14.80255511 9.70242837 14.80255511 9.70242837 18.0234375 8.84375 C21.6927183 6.94737877 24.43484115 4.55656887 27.484375 1.8046875 C32.78542035 -1.36745804 39.14013692 0.59690207 44.86328125 1.84375 C45.54712891 1.98683594 46.23097656 2.12992187 46.93554688 2.27734375 C48.60027639 2.62658771 50.26323 2.98427946 51.92578125 3.34375 C51.59578125 4.33375 51.26578125 5.32375 50.92578125 6.34375 C49.87390625 6.034375 48.82203125 5.725 47.73828125 5.40625 C37.61964206 2.40270572 37.61964206 2.40270572 27.70703125 4.578125 C24.9958761 6.62160762 22.48084081 8.84999879 19.9453125 11.10546875 C17.92578125 12.34375 17.92578125 12.34375 16 12.25 C13.31959951 11.07890223 11.1104808 9.55369591 8.73828125 7.84375 C7.85785156 7.2146875 6.97742188 6.585625 6.0703125 5.9375 C3.92578125 4.34375 3.92578125 4.34375 2.92578125 3.34375 C-4.66539337 2.82616991 -12.87128837 3.94277321 -20.07421875 6.34375 C-20.07421875 5.68375 -20.07421875 5.02375 -20.07421875 4.34375 C-16.61885161 2.04017191 -14.35242424 1.76766256 -10.26171875 1.21875 C-8.45767578 0.96738281 -8.45767578 0.96738281 -6.6171875 0.7109375 C-4.41058339 0.48224865 -2.20468311 0.24652111 0 0 Z " fill="#8AABC9" transform="translate(73.07421875,114.65625)"/>
<path d="M0 0 C1.45903258 0.30921884 2.91720722 0.62248799 4.375 0.9375 C5.18710938 1.11152344 5.99921875 1.28554688 6.8359375 1.46484375 C9 2 9 2 11 3 C11.08069658 5.95887459 11.14034665 8.9155659 11.1875 11.875 C11.22520508 13.13763672 11.22520508 13.13763672 11.26367188 14.42578125 C11.27817383 15.63427734 11.27817383 15.63427734 11.29296875 16.8671875 C11.31653442 17.98262939 11.31653442 17.98262939 11.34057617 19.12060547 C11.22818604 19.74080566 11.1157959 20.36100586 11 21 C10.01 21.66 9.02 22.32 8 23 C5.953125 21.453125 5.953125 21.453125 4 19 C4.046875 15.546875 4.046875 15.546875 4.75 11.75 C4.97171875 10.48671875 5.1934375 9.2234375 5.421875 7.921875 C5.61265625 6.95765625 5.8034375 5.9934375 6 5 C5.34 5 4.68 5 4 5 C4 5.66 4 6.32 4 7 C3.34 7 2.68 7 2 7 C0.5393715 4.35261084 0 3.10551666 0 0 Z " fill="#060608" transform="translate(103,55)"/>
<path d="M0 0 C0.66 0 1.32 0 2 0 C2 5.28 2 10.56 2 16 C-2.455 17.485 -2.455 17.485 -7 19 C-6.34 20.32 -5.68 21.64 -5 23 C-6.65 23 -8.3 23 -10 23 C-10 19.7 -10 16.4 -10 13 C-9.34 13 -8.68 13 -8 13 C-7.95875 12.236875 -7.9175 11.47375 -7.875 10.6875 C-7.58625 9.800625 -7.2975 8.91375 -7 8 C-5 7 -3 6 -1 5 C-0.03093173 2.41585574 -0.03093173 2.41585574 0 0 Z " fill="#0C0D0E" transform="translate(56,66)"/>
<path d="M0 0 C3.47774537 3.00350737 4.82620922 6.13174913 5.25 10.6875 C5 13 5 13 3 15 C2.75787127 16.98128508 2.75787127 16.98128508 2.875 19.125 C2.91625 20.40375 2.9575 21.6825 3 23 C3.66 23 4.32 23 5 23 C3.8141763 26.37503669 2.72426311 28.64722731 0 31 C-1.12029814 25.51053913 -0.79217969 22.16569441 1 17 C-0.32 17 -1.64 17 -3 17 C-3 19.97 -3 22.94 -3 26 C-3.66 26.33 -4.32 26.66 -5 27 C-5.78894134 17.97100472 -5.78894134 17.97100472 -2.5625 14 C-1.716875 13.34 -0.87125 12.68 0 12 C0.33 11.34 0.66 10.68 1 10 C1.99 9.67 2.98 9.34 4 9 C3.29875 8.9175 2.5975 8.835 1.875 8.75 C-1.6903452 7.81990995 -4.09015572 6.23313631 -7 4 C-7 3.34 -7 2.68 -7 2 C-3.9168649 3.19899698 -0.93720508 4.47700477 2 6 C1.34 5.01 0.68 4.02 0 3 C0 2.01 0 1.02 0 0 Z " fill="#090B0D" transform="translate(99,54)"/>
<path d="M0 0 C3.5 0.125 3.5 0.125 4.5 1.125 C4.54080783 3.12458364 4.54254356 5.12545254 4.5 7.125 C3.51 7.125 2.52 7.125 1.5 7.125 C1.5 5.805 1.5 4.485 1.5 3.125 C0.51 3.125 -0.48 3.125 -1.5 3.125 C-1.5 8.075 -1.5 13.025 -1.5 18.125 C-0.51 18.125 0.48 18.125 1.5 18.125 C1.5 16.805 1.5 15.485 1.5 14.125 C2.49 14.125 3.48 14.125 4.5 14.125 C4.5 16.105 4.5 18.085 4.5 20.125 C1.95299007 21.72867292 0.88598454 22.18942578 -2.14453125 21.68359375 C-2.92183594 21.49925781 -3.69914062 21.31492187 -4.5 21.125 C-4.52888146 17.81251813 -4.54675799 14.50006833 -4.5625 11.1875 C-4.57087891 10.24197266 -4.57925781 9.29644531 -4.58789062 8.32226562 C-4.59111328 7.42314453 -4.59433594 6.52402344 -4.59765625 5.59765625 C-4.60289307 4.76500244 -4.60812988 3.93234863 -4.61352539 3.07446289 C-4.41154613 -0.39393372 -3.59257528 0.12830626 0 0 Z " fill="#F3F3F3" transform="translate(70.5,91.875)"/>
<path d="M0 0 C2.28684023 2.15232021 4.05036669 4.36056945 5.75 7 C6.19859375 7.680625 6.6471875 8.36125 7.109375 9.0625 C8 11 8 11 7 14 C6.401875 13.67 5.80375 13.34 5.1875 13 C2.94613529 11.79212012 2.94613529 11.79212012 0 12 C-1.33981486 11.6937566 -2.67511887 11.36548445 -4 11 C-3.67 9.68 -3.34 8.36 -3 7 C-4.65 7.66 -6.3 8.32 -8 9 C-7.01 10.32 -6.02 11.64 -5 13 C-8.3 12.01 -11.6 11.02 -15 10 C-7 4 -7 4 -3 4 C-2.67 3.01 -2.34 2.02 -2 1 C-1.34 0.67 -0.68 0.34 0 0 Z " fill="#46494D" transform="translate(73,76)"/>
<path d="M0 0 C3.14138634 1.25655454 4.91026021 3.41797812 7.1875 5.875 C7.8475 6.535 8.5075 7.195 9.1875 7.875 C9.31125 8.98875 9.435 10.1025 9.5625 11.25 C10.25038198 15.2397155 11.10395726 16.38827198 14.1875 18.875 C8.49698637 18.3368629 2.83884116 17.7349867 -2.8125 16.875 C-0.83829865 14.35240939 0.15495642 13.8820192 3.375 13.1875 C4.303125 13.084375 5.23125 12.98125 6.1875 12.875 C5.28123216 11.5760161 4.36200463 10.28606833 3.4375 9 C2.92703125 8.28070313 2.4165625 7.56140625 1.890625 6.8203125 C0.11246453 4.78929435 -1.33951607 3.89644988 -3.8125 2.875 C-3.8125 2.215 -3.8125 1.555 -3.8125 0.875 C-1.8125 -0.125 -1.8125 -0.125 0 0 Z " fill="#0B0D0F" transform="translate(100.8125,32.125)"/>
<path d="M0 0 C1.32 0.66 2.64 1.32 4 2 C3.071875 2.53625 2.14375 3.0725 1.1875 3.625 C-2.25805847 6.19227886 -3.35444329 8.10262883 -5 12 C-5.33 12.33 -5.66 12.66 -6 13 C-1.545 13.99 -1.545 13.99 3 15 C3 15.99 3 16.98 3 18 C1.02 17.01 -0.96 16.02 -3 15 C-3 15.99 -3 16.98 -3 18 C-0.525 18.99 -0.525 18.99 2 20 C2.33 25.28 2.66 30.56 3 36 C-3.875 30.25 -3.875 30.25 -5 28 C-5.13415472 25.3276379 -5.04318541 22.67749512 -5 20 C-4.67 20 -4.34 20 -4 20 C-3.81824219 20.93972656 -3.81824219 20.93972656 -3.6328125 21.8984375 C-3.46523437 22.71570313 -3.29765625 23.53296875 -3.125 24.375 C-2.96257812 25.18710938 -2.80015625 25.99921875 -2.6328125 26.8359375 C-2.13341068 29.18673923 -2.13341068 29.18673923 0 31 C0.2288964 27.96712265 0.36130698 25.02527187 0 22 C-1.82437884 20.06788056 -1.82437884 20.06788056 -4 19 C-4.33 18.01 -4.66 17.02 -5 16 C-5.66 15.67 -6.32 15.34 -7 15 C-7.33 15.66 -7.66 16.32 -8 17 C-8.95681647 14.44848941 -9.2094162 12.63707941 -8.3515625 10.02734375 C-6.28277185 5.60013175 -4.14609642 2.76406428 0 0 Z " fill="#575F65" transform="translate(84,49)"/>
<path d="M0 0 C0 0.33 0 0.66 0 1 C-0.72445312 1.06316406 -1.44890625 1.12632813 -2.1953125 1.19140625 C-7.52609636 1.86663887 -11.12827789 2.37966278 -14.6875 6.625 C-15.48760657 7.72937245 -16.27003063 8.84806522 -17 10 C-16.05125 10.2475 -15.1025 10.495 -14.125 10.75 C-11 12 -11 12 -9.625 14.125 C-9.41875 14.74375 -9.2125 15.3625 -9 16 C-9.78375 16.886875 -10.5675 17.77375 -11.375 18.6875 C-15.17029431 23.27840842 -16.40082375 26.9876437 -16 33 C-15.67 33.66 -15.34 34.32 -15 35 C-14.86584528 37.6723621 -14.95681459 40.32250488 -15 43 C-17 42 -17 42 -17.6328125 40.14453125 C-19.40897014 31.72892719 -19.54122379 26.47154049 -15 19 C-13.71937515 17.2925002 -12.40549561 15.60628069 -11 14 C-13.97 13.01 -16.94 12.02 -20 11 C-15.30030494 1.60060988 -10.35914776 -1.96466596 0 0 Z " fill="#C7E1EC" transform="translate(92,34)"/>
<path d="M0 0 C0.71542969 0.38671875 1.43085937 0.7734375 2.16796875 1.171875 C2.16796875 1.831875 2.16796875 2.491875 2.16796875 3.171875 C1.4925 3.43742187 0.81703125 3.70296875 0.12109375 3.9765625 C-0.7709375 4.32976563 -1.66296875 4.68296875 -2.58203125 5.046875 C-3.46375 5.39492188 -4.34546875 5.74296875 -5.25390625 6.1015625 C-7.50605605 7.0365459 -9.66852584 8.04968294 -11.83203125 9.171875 C-10.67367506 12.01511292 -9.51029515 13.48576387 -7.26953125 15.671875 C-4.96826798 18.03214502 -4.18581261 18.98784275 -3.83203125 22.171875 C-4.49203125 22.501875 -5.15203125 22.831875 -5.83203125 23.171875 C-6.18265625 22.470625 -6.53328125 21.769375 -6.89453125 21.046875 C-9.00990546 17.90793263 -11.29945982 15.87691709 -14.2109375 13.50390625 C-15.83203125 12.171875 -15.83203125 12.171875 -17.83203125 10.171875 C-16.45703125 8.671875 -16.45703125 8.671875 -14.83203125 7.171875 C-14.17203125 7.171875 -13.51203125 7.171875 -12.83203125 7.171875 C-12.83203125 6.511875 -12.83203125 5.851875 -12.83203125 5.171875 C-10.8203125 3.59375 -10.8203125 3.59375 -8.14453125 1.921875 C-6.83935547 1.07882813 -6.83935547 1.07882813 -5.5078125 0.21875 C-2.83203125 -0.828125 -2.83203125 -0.828125 0 0 Z " fill="#6D7581" transform="translate(67.83203125,29.828125)"/>
<path d="M0 0 C0.66 0 1.32 0 2 0 C2.02691685 2.45840605 2.04679802 4.91651882 2.0625 7.375 C2.07087891 8.07367188 2.07925781 8.77234375 2.08789062 9.4921875 C2.11328125 14.7734375 2.11328125 14.7734375 1 17 C0.34 17 -0.32 17 -1 17 C-1 18.98 -1 20.96 -1 23 C-1.33 23 -1.66 23 -2 23 C-2 19.37 -2 15.74 -2 12 C-4.475 11.01 -4.475 11.01 -7 10 C-7 9.01 -7 8.02 -7 7 C-4.525 7.495 -4.525 7.495 -2 8 C-4.475 7.01 -4.475 7.01 -7 6 C-6.21625 5.38125 -5.4325 4.7625 -4.625 4.125 C-2.03162353 2.10141339 -2.03162353 2.10141339 0 0 Z " fill="#4B4B4A" transform="translate(88,57)"/>
<path d="M0 0 C-0.70125 0.66 -1.4025 1.32 -2.125 2 C-5.49416695 5.34985941 -8.22468725 9.15652564 -11 13 C-9.8553125 13.1546875 -9.8553125 13.1546875 -8.6875 13.3125 C-6 14 -6 14 -3 17 C-6.96 17.33 -10.92 17.66 -15 18 C-15.33 17.01 -15.66 16.02 -16 15 C-15.01 15 -14.02 15 -13 15 C-13.020625 14.05125 -13.04125 13.1025 -13.0625 12.125 C-13 9 -13 9 -12 7 C-11.34 7 -10.68 7 -10 7 C-9.690625 6.38125 -9.38125 5.7625 -9.0625 5.125 C-7 1 -7 1 -4.5625 -0.1875 C-2 -1 -2 -1 0 0 Z " fill="#0A0C0E" transform="translate(83,32)"/>
<path d="M0 0 C3 0.125 3 0.125 4 1.125 C4.09969841 2.87265452 4.12968045 4.6245103 4.125 6.375 C4.12757812 7.32890625 4.13015625 8.2828125 4.1328125 9.265625 C4.00628725 11.98963928 3.61005381 14.47175009 3 17.125 C2.67 17.125 2.34 17.125 2 17.125 C2 12.505 2 7.885 2 3.125 C0.68 3.125 -0.64 3.125 -2 3.125 C-1.98839844 4.11242187 -1.97679688 5.09984375 -1.96484375 6.1171875 C-1.95582031 7.39851563 -1.94679688 8.67984375 -1.9375 10 C-1.92589844 11.27617188 -1.91429688 12.55234375 -1.90234375 13.8671875 C-2 17.125 -2 17.125 -3 19.125 C0.465 18.63 0.465 18.63 4 18.125 C4 18.785 4 19.445 4 20.125 C1.36 20.125 -1.28 20.125 -4 20.125 C-4.02888514 16.97918577 -4.04675923 13.83340531 -4.0625 10.6875 C-4.07087891 9.78966797 -4.07925781 8.89183594 -4.08789062 7.96679688 C-4.09111328 7.11279297 -4.09433594 6.25878906 -4.09765625 5.37890625 C-4.10551147 4.19276733 -4.10551147 4.19276733 -4.11352539 2.98266602 C-3.91992754 -0.18526101 -3.22025557 0.13417732 0 0 Z " fill="#FBFBFB" transform="translate(92,91.875)"/>
<path d="M0 0 C2.475 0.99 2.475 0.99 5 2 C4.01 2.495 4.01 2.495 3 3 C3.99 4.98 4.98 6.96 6 9 C5.01 9 4.02 9 3 9 C0.08134383 10.26949679 -2.56472908 11.92432842 -5.25 13.625 C-6.30960937 14.29402344 -6.30960937 14.29402344 -7.390625 14.9765625 C-7.92171875 15.31429687 -8.4528125 15.65203125 -9 16 C-9.33 15.34 -9.66 14.68 -10 14 C-9.34 14 -8.68 14 -8 14 C-7.95875 13.278125 -7.9175 12.55625 -7.875 11.8125 C-6.92452924 8.75741542 -6.36426326 8.25360026 -3.9375 6.375 C-2.968125 5.59125 -1.99875 4.8075 -1 4 C-1 3.01 -1 2.02 -1 1 C-0.67 0.67 -0.34 0.34 0 0 Z " fill="#0A0A0B" transform="translate(87,47)"/>
<path d="M0 0 C-1 2 -1 2 -2.9609375 2.8515625 C-4.15589844 3.23441406 -4.15589844 3.23441406 -5.375 3.625 C-6.56222656 4.01558594 -6.56222656 4.01558594 -7.7734375 4.4140625 C-10 5 -10 5 -13 5 C-13 12.59 -13 20.18 -13 28 C-13.66 28 -14.32 28 -15 28 C-15 19.75 -15 11.5 -15 3 C-5 0 -5 0 0 0 Z " fill="#817565" transform="translate(77,53)"/>
<path d="M0 0 C0.86476686 2.42134721 1.1422798 3.60873054 0.25 6.0625 C-2.77639457 10.75341159 -5.53130515 11.65862202 -11 13 C-10.67 14.32 -10.34 15.64 -10 17 C-11.875 16.75 -11.875 16.75 -14 16 C-15.1328125 13.953125 -15.1328125 13.953125 -16 12 C-14.25595212 10.98965502 -12.50450439 9.99207578 -10.75 9 C-9.77546875 8.443125 -8.8009375 7.88625 -7.796875 7.3125 C-5 6 -5 6 -1 6 C-1 5.34 -1 4.68 -1 4 C-1.99 3.67 -2.98 3.34 -4 3 C-4 2.34 -4 1.68 -4 1 C-2.68 0.67 -1.36 0.34 0 0 Z " fill="#0A0A0C" transform="translate(71,27)"/>
<path d="M0 0 C2.01920337 1.30406884 4.01924973 2.63823419 6 4 C6 4.33 6 4.66 6 5 C2.37 5.33 -1.26 5.66 -5 6 C-3.4840625 8.2584375 -3.4840625 8.2584375 -1.9375 10.5625 C0.16046551 14.0706546 0.99317803 15.59068154 1.0625 19.75 C-0.01397509 23.04274733 -1.30583002 25.97995787 -3 29 C-3.33 28.01 -3.66 27.02 -4 26 C-3.2575 24.5459375 -3.2575 24.5459375 -2.5 23.0625 C-0.78275682 20.27049506 -0.78275682 20.27049506 -1.25390625 18.05859375 C-2.07236762 15.80032599 -3.11768707 14.00517573 -4.4375 12 C-6.14153038 9.39563118 -7.65273665 6.80732083 -9 4 C-8.43410156 3.87882812 -7.86820313 3.75765625 -7.28515625 3.6328125 C-6.18494141 3.38144531 -6.18494141 3.38144531 -5.0625 3.125 C-4.33160156 2.96257812 -3.60070313 2.80015625 -2.84765625 2.6328125 C-0.79299706 2.17038477 -0.79299706 2.17038477 0 0 Z " fill="#7799BE" transform="translate(51,86)"/>
<path d="M0 0 C0.66 0 1.32 0 2 0 C2.05807043 3.10408807 2.09361914 6.2080364 2.125 9.3125 C2.14175781 10.19357422 2.15851562 11.07464844 2.17578125 11.98242188 C2.18222656 12.82998047 2.18867187 13.67753906 2.1953125 14.55078125 C2.20578613 15.33106689 2.21625977 16.11135254 2.22705078 16.9152832 C2 19 2 19 0 22 C-1.91683709 20.08316291 -1.42750305 16.63442708 -1.62109375 14.03125 C-1.74613281 13.3609375 -1.87117188 12.690625 -2 12 C-2.66 11.67 -3.32 11.34 -4 11 C-3.52269162 9.5410574 -3.04308958 8.08286504 -2.5625 6.625 C-2.29566406 5.81289063 -2.02882812 5.00078125 -1.75390625 4.1640625 C-1 2 -1 2 0 0 Z " fill="#131316" transform="translate(40,54)"/>
<path d="M0 0 C0.42410156 0.37511719 0.84820312 0.75023437 1.28515625 1.13671875 C4.39685498 3.85176138 7.45774968 6.33261918 10.9375 8.5625 C11.948125 9.366875 12.95875 10.17125 14 11 C14.19140625 13.65234375 14.19140625 13.65234375 14 16 C8.29014621 12.34880098 3.05535865 8.51755454 -2 4 C-1.34 2.68 -0.68 1.36 0 0 Z " fill="#070809" transform="translate(44,47)"/>
<path d="M0 0 C5.29145847 -0.18246409 8.96306461 0.16707509 14 2 C14.05819424 5.24992446 14.09366116 8.49971435 14.125 11.75 C14.14175781 12.67039062 14.15851563 13.59078125 14.17578125 14.5390625 C14.18222656 15.42851563 14.18867187 16.31796875 14.1953125 17.234375 C14.20578613 18.05131836 14.21625977 18.86826172 14.22705078 19.70996094 C14 22 14 22 12 26 C12 18.74 12 11.48 12 4 C7.545 3.01 7.545 3.01 3 2 C2.01 1.34 1.02 0.68 0 0 Z " fill="#DBD5C6" transform="translate(103,54)"/>
<path d="M0 0 C1.640625 1.046875 1.640625 1.046875 4.078125 3.109375 C4.078125 3.769375 4.078125 4.429375 4.078125 5.109375 C3.46324219 4.95339844 2.84835938 4.79742187 2.21484375 4.63671875 C1.40660156 4.44207031 0.59835938 4.24742188 -0.234375 4.046875 C-1.03488281 3.84964844 -1.83539063 3.65242188 -2.66015625 3.44921875 C-5.08144679 2.91051946 -5.08144679 2.91051946 -7.921875 4.109375 C-9.593424 3.80145808 -11.25993047 3.46550597 -12.921875 3.109375 C-14.5881303 3.0723471 -16.25588819 3.06177538 -17.921875 3.109375 C-12.76049898 -2.40795799 -6.93831961 -3.21531884 0 0 Z " fill="#E4E3E2" transform="translate(96.921875,37.890625)"/>
<path d="M0 0 C6.35103673 -0.45364548 10.72153317 0.30844963 16 4 C18.0071546 5.9050959 19.40243369 7.70349843 21 10 C21 10.66 21 11.32 21 12 C20.15115234 12.25523438 20.15115234 12.25523438 19.28515625 12.515625 C18.55167969 12.75796875 17.81820312 13.0003125 17.0625 13.25 C16.33160156 13.48203125 15.60070312 13.7140625 14.84765625 13.953125 C12.79429444 14.8507553 12.79429444 14.8507553 12.24609375 17.109375 C12.16488281 17.73328125 12.08367187 18.3571875 12 19 C11.01 18.01 10.02 17.02 9 16 C14.75 11 14.75 11 17 11 C14.96438702 6.41987079 12.45692467 4.79032776 8.07421875 2.78125 C5.4139987 1.77928388 2.82361423 1.28236142 0 1 C0 0.67 0 0.34 0 0 Z " fill="#E7E9EA" transform="translate(86,33)"/>
<path d="M0 0 C-1.65 0 -3.3 0 -5 0 C-5.268125 0.639375 -5.53625 1.27875 -5.8125 1.9375 C-7 4 -7 4 -10 5 C-12.6875 3.5625 -12.6875 3.5625 -15 2 C-14.67 0.68 -14.34 -0.64 -14 -2 C-4.99328859 -3.32885906 -4.99328859 -3.32885906 0 0 Z " fill="#06080B" transform="translate(70,121)"/>
<path d="M0 0 C0.33 0 0.66 0 1 0 C1 1.98 1 3.96 1 6 C1.78503906 6.03738281 2.57007812 6.07476562 3.37890625 6.11328125 C9.58300901 6.50151345 14.47426876 7.11154958 20 10 C19.01 10.99 18.02 11.98 17 13 C17 12.34 17 11.68 17 11 C16.41734375 10.95101562 15.8346875 10.90203125 15.234375 10.8515625 C8.42535679 10.2306143 1.73102216 9.19122901 -5 8 C-4.34 7.34 -3.68 6.68 -3 6 C-2.01 6 -1.02 6 0 6 C0 4.02 0 2.04 0 0 Z " fill="#111419" transform="translate(108,107)"/>
<path d="M0 0 C-0.1875 1.8125 -0.1875 1.8125 -1 4 C-4.20519925 6.40389944 -7.05372236 7.43624605 -11 8 C-11 6.02 -11 4.04 -11 2 C-3.57142857 -1.57142857 -3.57142857 -1.57142857 0 0 Z " fill="#010204" transform="translate(55,65)"/>
<path d="M0 0 C0.99 0.33 1.98 0.66 3 1 C3.33 6.28 3.66 11.56 4 17 C1 17 1 17 -0.73828125 15.94921875 C-2.74401842 12.85057217 -1.80524108 10.35638304 -1.1875 6.8125 C-0.97480469 5.54019531 -0.76210937 4.26789063 -0.54296875 2.95703125 C-0.36378906 1.98121094 -0.18460937 1.00539062 0 0 Z " fill="#080C16" transform="translate(109,60)"/>
<path d="M0 0 C3.14138634 1.25655454 4.91026021 3.41797812 7.1875 5.875 C7.8475 6.535 8.5075 7.195 9.1875 7.875 C9.75270003 10.53037372 9.92538198 13.16644713 10.1875 15.875 C9.1975 15.545 8.2075 15.215 7.1875 14.875 C6.8575 12.565 6.5275 10.255 6.1875 7.875 C5.1975 8.205 4.2075 8.535 3.1875 8.875 C2.40375 8.070625 1.62 7.26625 0.8125 6.4375 C-1.53232856 3.88809583 -1.53232856 3.88809583 -3.8125 2.875 C-3.8125 2.215 -3.8125 1.555 -3.8125 0.875 C-1.8125 -0.125 -1.8125 -0.125 0 0 Z " fill="#111216" transform="translate(100.8125,32.125)"/>
<path d="M0 0 C4.95 0.33 9.9 0.66 15 1 C13 5 13 5 12 6 C11.08303876 11.70553659 10.87977358 17.22913206 11 23 C10.67 23 10.34 23 10 23 C9.87625 21.906875 9.7525 20.81375 9.625 19.6875 C9.24535199 15.92618198 9.24535199 15.92618198 7 13 C7.66 13 8.32 13 9 13 C8.95875 11.906875 8.9175 10.81375 8.875 9.6875 C9 6 9 6 11 3 C7.04 2.67 3.08 2.34 -1 2 C-0.67 1.34 -0.34 0.68 0 0 Z " fill="#D8E6ED" transform="translate(122,89)"/>
<path d="M0 0 C0.99 0 1.98 0 3 0 C2.67 0.99 2.34 1.98 2 3 C2.03045273 4.81332157 2.09656655 6.62620389 2.1875 8.4375 C2.26328806 13.64620667 2.26328806 13.64620667 0 16.6875 C-0.66 17.120625 -1.32 17.55375 -2 18 C-2.81598839 12.46383262 -3.24294427 7.53675175 -2 2 C-1.34 1.34 -0.68 0.68 0 0 Z " fill="#090E11" transform="translate(135,93)"/>
<path d="M0 0 C0.33 0 0.66 0 1 0 C1 8.91 1 17.82 1 27 C-8 31 -8 31 -10 31 C-10 30.34 -10 29.68 -10 29 C-4.375 26 -4.375 26 -1 26 C-0.67 17.42 -0.34 8.84 0 0 Z " fill="#9CC6ED" transform="translate(59,56)"/>
<path d="M0 0 C1.32 0.99 2.64 1.98 4 3 C2.36041242 8.23272633 0.61047965 13.15196636 -2 18 C-2.33 18 -2.66 18 -3 18 C-3 14.7 -3 11.4 -3 8 C-2.01 7.67 -1.02 7.34 0 7 C0 4.69 0 2.38 0 0 Z " fill="#141619" transform="translate(139,88)"/>
<path d="M0 0 C0.99 0.495 0.99 0.495 2 1 C2.625 3.5625 2.625 3.5625 3 6 C3.99 6 4.98 6 6 6 C6 4.68 6 3.36 6 2 C6.99 2 7.98 2 9 2 C9 3.98 9 5.96 9 8 C6.42786866 9.61949011 5.32330841 10.04408751 2.25 9.625 C1.13625 9.315625 1.13625 9.315625 0 9 C0 6.03 0 3.06 0 0 Z " fill="#DADBDA" transform="translate(66,104)"/>
<path d="M0 0 C0.99 0 1.98 0 3 0 C3 1.32 3 2.64 3 4 C3.99 4.33 4.98 4.66 6 5 C8.56039231 8.55610043 8.5765018 12.76501798 9 17 C8.01 17.66 7.02 18.32 6 19 C5.98582031 18.31292969 5.97164062 17.62585938 5.95703125 16.91796875 C5.81282933 14.1937216 5.61422057 11.66018064 5 9 C2.52066803 7.22851628 2.52066803 7.22851628 0 6 C-0.3125 2.8125 -0.3125 2.8125 0 0 Z " fill="#0C0D0F" transform="translate(124,96)"/>
<path d="M0 0 C0.33 0.99 0.66 1.98 1 3 C3.475 3.99 3.475 3.99 6 5 C6.33 10.28 6.66 15.56 7 21 C0.125 15.25 0.125 15.25 -1 13 C-1.13415472 10.3276379 -1.04318541 7.67749512 -1 5 C-0.67 5 -0.34 5 0 5 C0.18175781 5.93972656 0.18175781 5.93972656 0.3671875 6.8984375 C0.53476563 7.71570313 0.70234375 8.53296875 0.875 9.375 C1.03742188 10.18710938 1.19984375 10.99921875 1.3671875 11.8359375 C1.86658932 14.18673923 1.86658932 14.18673923 4 16 C4.2288846 12.96727906 4.36726814 10.02456118 4 7 C2.0995533 5.15684329 2.0995533 5.15684329 0 4 C0 2.68 0 1.36 0 0 Z " fill="#D6D9D9" transform="translate(80,64)"/>
<path d="M0 0 C3.54615991 0.5976674 5.50132351 1.95894574 8.1875 4.3125 C8.88230469 4.90675781 9.57710937 5.50101563 10.29296875 6.11328125 C12.10781237 8.11916104 12.60932477 9.35856894 13 12 C11.3125 11.875 11.3125 11.875 9 11 C7.74482084 9.51953228 6.49273188 8.03486479 5.3046875 6.5 C3.50608343 4.43214382 1.41833455 3.24371491 -1 2 C-0.67 1.34 -0.34 0.68 0 0 Z " fill="#07080A" transform="translate(49,41)"/>
<path d="M0 0 C2.96175123 0.61277612 4.38058783 1.25372522 7 3 C10.83103042 2.68074747 12.76680553 2.15546298 16 0 C16.99 0.33 17.98 0.66 19 1 C12.04969307 6.95001462 12.04969307 6.95001462 8.375 7.125 C5.32762372 5.68150597 2.67576402 4.05349332 0 2 C0 1.34 0 0.68 0 0 Z " fill="#665C50" transform="translate(80,115)"/>
<path d="M0 0 C5.70709064 0.46588495 9.15939723 1.93757784 14 5 C10.46588679 7.12046792 7.05606165 7.53199289 3 8 C3.99 6.68 4.98 5.36 6 4 C3.23735711 3.40267181 0.83967231 3 -2 3 C-1.34 2.01 -0.68 1.02 0 0 Z " fill="#C5BFB8" transform="translate(108,81)"/>
<path d="M0 0 C0.66 0 1.32 0 2 0 C2.29296875 6.0546875 2.29296875 6.0546875 2 8 C1.01 8.66 0.02 9.32 -1 10 C-3.6875 9.125 -3.6875 9.125 -6 8 C-6 5.69 -6 3.38 -6 1 C-5.01 1 -4.02 1 -3 1 C-3 2.65 -3 4.3 -3 6 C-2.01 6 -1.02 6 0 6 C0 4.02 0 2.04 0 0 Z " fill="#DDDDD9" transform="translate(127,107)"/>
<path d="M0 0 C0.99 0 1.98 0 3 0 C3 5.28 3 10.56 3 16 C2.01 16 1.02 16 0 16 C0 10.72 0 5.44 0 0 Z " fill="#08090A" transform="translate(113,95)"/>
<path d="M0 0 C2.375 -0.125 2.375 -0.125 5 0 C7 2 7 2 7.125 5.625 C7.08375 6.73875 7.0425 7.8525 7 9 C5.68 9 4.36 9 3 9 C2.67 7.02 2.34 5.04 2 3 C1.67 4.98 1.34 6.96 1 9 C0.34 8.67 -0.32 8.34 -1 8 C-0.67 5.36 -0.34 2.72 0 0 Z " fill="#BCBCBD" transform="translate(79,104)"/>
<path d="M0 0 C2.09749995 2.35968744 2.96905704 3.54616994 3.1875 6.75 C3.125625 7.4925 3.06375 8.235 3 9 C-0.465 10.485 -0.465 10.485 -4 12 C-4.33 11.01 -4.66 10.02 -5 9 C-4.34 9 -3.68 9 -3 9 C-2.87625 8.2575 -2.7525 7.515 -2.625 6.75 C-2.04513299 4.19858515 -1.26291261 2.2732427 0 0 Z " fill="#0E1012" transform="translate(56,108)"/>
<path d="M0 0 C2.73902249 2.36551942 3.93170092 4.54857221 5 8 C5.125 10.8125 5.125 10.8125 5 13 C4.01 13 3.02 13 2 13 C1.67 12.01 1.34 11.02 1 10 C1.99 9.67 2.98 9.34 4 9 C3.29875 8.9175 2.5975 8.835 1.875 8.75 C-1.6903452 7.81990995 -4.09015572 6.23313631 -7 4 C-7 3.34 -7 2.68 -7 2 C-3.9168649 3.19899698 -0.93720508 4.47700477 2 6 C1.34 5.01 0.68 4.02 0 3 C0 2.01 0 1.02 0 0 Z " fill="#1F2022" transform="translate(99,54)"/>
<path d="M0 0 C5.66197809 1.31673909 7.74584061 3.40589263 11 8 C11 8.66 11 9.32 11 10 C6.39137539 8.50897439 3.46669756 6.30545582 0 3 C0 2.01 0 1.02 0 0 Z " fill="#E1DCD3" transform="translate(90,50)"/>
<path d="M0 0 C0.33 0 0.66 0 1 0 C1.3125 2.3125 1.3125 2.3125 1 5 C-1.3832946 6.81883009 -2.95818337 8 -6 8 C-6.33 11.96 -6.66 15.92 -7 20 C-7.33 20 -7.66 20 -8 20 C-8 15.38 -8 10.76 -8 6 C-6.02 5.01 -4.04 4.02 -2 3 C-1.34 2.01 -0.68 1.02 0 0 Z " fill="#515152" transform="translate(55,66)"/>
<path d="M0 0 C0.99 0.33 1.98 0.66 3 1 C0.69685767 10.70609982 0.69685767 10.70609982 -1 14 C-1.99 14.33 -2.98 14.66 -4 15 C-3.43179252 9.54520815 -2.05362055 5.08940744 0 0 Z " fill="#D8D7D4" transform="translate(54,103)"/>
<path d="M0 0 C2.28684023 2.15232021 4.05036669 4.36056945 5.75 7 C6.19859375 7.680625 6.6471875 8.36125 7.109375 9.0625 C8 11 8 11 7 14 C6.38125 13.649375 5.7625 13.29875 5.125 12.9375 C4.42375 12.628125 3.7225 12.31875 3 12 C2.01 12.495 2.01 12.495 1 13 C1.165 12.401875 1.33 11.80375 1.5 11.1875 C2.1114124 8.88655664 2.1114124 8.88655664 2 6 C0.42698959 4.1409877 -0.81619917 3.09190042 -3 2 C-2.01 1.34 -1.02 0.68 0 0 Z " fill="#6B6A6B" transform="translate(73,76)"/>
<path d="M0 0 C1.80330533 3.60661066 2.46599103 6.08393425 3 10 C2.34 10 1.68 10 1 10 C0.67 10.99 0.34 11.98 0 13 C-2.0625 14.1875 -2.0625 14.1875 -4 15 C-4.33 13.35 -4.66 11.7 -5 10 C-3.35 9.67 -1.7 9.34 0 9 C0 6.03 0 3.06 0 0 Z " fill="#08090B" transform="translate(102,104)"/>
<path d="M0 0 C3.80177902 -0.55908515 4.93030105 -0.05018324 8.125 2.25 C12.69616519 6.62241888 12.69616519 6.62241888 14 9 C13.6875 11.25 13.6875 11.25 13 13 C12.484375 12.29875 11.96875 11.5975 11.4375 10.875 C9.00837395 8.00987697 6.46872177 5.7175667 3.5859375 3.33203125 C2 2 2 2 0 0 Z " fill="#57606C" transform="translate(50,40)"/>
<path d="M0 0 C1.32 0.33 2.64 0.66 4 1 C3.67 4.63 3.34 8.26 3 12 C2.34 12 1.68 12 1 12 C0.67 12.66 0.34 13.32 0 14 C0 9.38 0 4.76 0 0 Z " fill="#FAFAFA" transform="translate(105,92)"/>
<path d="M0 0 C3.56521654 1.78260827 6.71455357 3.75992289 10 6 C9.01 6.495 9.01 6.495 8 7 C5.375 6.0625 5.375 6.0625 3 5 C2.67 5.66 2.34 6.32 2 7 C2 5.35 2 3.7 2 2 C-2.455 4.97 -2.455 4.97 -7 8 C-7.66 7.67 -8.32 7.34 -9 7 C-6.03 4.69 -3.06 2.38 0 0 Z " fill="#E2E1DF" transform="translate(88,55)"/>
<path d="M0 0 C3.53171849 0.58993071 5.33005495 1.90125873 7.9375 4.3125 C10.24937128 6.42127231 12.51712973 8.39862084 15 10.3125 C15.66 10.869375 16.32 11.42625 17 12 C17 12.66 17 13.32 17 14 C16.34 14 15.68 14 15 14 C13.66666667 12.66666667 12.33333333 11.33333333 11 10 C9.15660643 8.67196377 7.28704776 7.39943907 5.390625 6.1484375 C4.93171875 5.76945312 4.4728125 5.39046875 4 5 C4 4.34 4 3.68 4 3 C2.68 2.67 1.36 2.34 0 2 C0 1.34 0 0.68 0 0 Z " fill="#646464" transform="translate(41,51)"/>
<path d="M0 0 C1.98 0.495 1.98 0.495 4 1 C4 3.97 4 6.94 4 10 C3.01 10 2.02 10 1 10 C-0.83691257 6.21812119 -1.15837626 4.05431692 0 0 Z " fill="#D8D8DA" transform="translate(104,103)"/>
<path d="M0 0 C0 0.33 0 0.66 0 1 C-0.72445312 1.06316406 -1.44890625 1.12632813 -2.1953125 1.19140625 C-7.50641369 1.86414573 -11.08331738 2.33024838 -14.5625 6.625 C-14.99691406 7.25664063 -15.43132812 7.88828125 -15.87890625 8.5390625 C-16.24886719 9.02117188 -16.61882812 9.50328125 -17 10 C-17.66 10 -18.32 10 -19 10 C-17.56179187 4.96627156 -15.09754485 3.01044111 -11 0 C-6.94952424 -1.35015859 -4.2079832 -0.62084998 0 0 Z " fill="#D2D8DB" transform="translate(92,34)"/>
<path d="M0 0 C0.33 0 0.66 0 1 0 C1 4.29 1 8.58 1 13 C0.67 13 0.34 13 0 13 C-0.33 11.35 -0.66 9.7 -1 8 C-2.98 7.34 -4.96 6.68 -7 6 C-6.21625 5.38125 -5.4325 4.7625 -4.625 4.125 C-2.03162353 2.10141339 -2.03162353 2.10141339 0 0 Z " fill="#0C0C0C" transform="translate(88,57)"/>
<path d="M0 0 C0.33 0.66 0.66 1.32 1 2 C1.763125 1.649375 2.52625 1.29875 3.3125 0.9375 C6 0 6 0 9 1 C8.01 1.495 8.01 1.495 7 2 C7.33 2.66 7.66 3.32 8 4 C3.545 5.485 3.545 5.485 -1 7 C-0.67 4.69 -0.34 2.38 0 0 Z " fill="#161616" transform="translate(105,86)"/>
<path d="M0 0 C3.37503669 1.1858237 5.64722731 2.27573689 8 5 C6.68 5.33 5.36 5.66 4 6 C4 6.99 4 7.98 4 9 C-1.875 5.25 -1.875 5.25 -3 3 C-0.525 3.495 -0.525 3.495 2 4 C1.34 2.68 0.68 1.36 0 0 Z " fill="#494B4E" transform="translate(53,49)"/>
<path d="M0 0 C2.25 -0.25 2.25 -0.25 5 0 C6.32 1.32 7.64 2.64 9 4 C3.06 4.495 3.06 4.495 -3 5 C-2.67 4.34 -2.34 3.68 -2 3 C-1.34 3 -0.68 3 0 3 C0 2.01 0 1.02 0 0 Z " fill="#050608" transform="translate(71,45)"/>
<path d="M0 0 C0.33 0 0.66 0 1 0 C1 5.94 1 11.88 1 18 C0.34 18 -0.32 18 -1 18 C-1.66 15.03 -2.32 12.06 -3 9 C-2.01 8.67 -1.02 8.34 0 8 C0 5.36 0 2.72 0 0 Z " fill="#3A3D40" transform="translate(87,94)"/>
<path d="M0 0 C-2 1.33333333 -4 2.66666667 -6 4 C-5.01 4.99 -4.02 5.98 -3 7 C-6.3 6.01 -9.6 5.02 -13 4 C-5.1322314 -1.90082645 -5.1322314 -1.90082645 0 0 Z " fill="#D8D8D7" transform="translate(71,82)"/>
<path d="M0 0 C0.66 0.66 1.32 1.32 2 2 C1.9765625 4.1640625 1.9765625 4.1640625 1.625 6.625 C1.51414062 7.44226563 1.40328125 8.25953125 1.2890625 9.1015625 C1.19367188 9.72804688 1.09828125 10.35453125 1 11 C-0.32 11 -1.64 11 -3 11 C-2.88590407 9.54077307 -2.75834456 8.08259402 -2.625 6.625 C-2.55539063 5.81289062 -2.48578125 5.00078125 -2.4140625 4.1640625 C-2 2 -2 2 0 0 Z " fill="#C9CACC" transform="translate(101,102)"/>
<path d="M0 0 C1.66611905 -0.042721 3.33382885 -0.04063832 5 0 C6 1 6 1 6.09765625 2.84765625 C6.04882812 5.92382812 6.04882812 5.92382812 6 9 C5.67 8.34 5.34 7.68 5 7 C4.34 6.67 3.68 6.34 3 6 C3.33 5.34 3.66 4.68 4 4 C0.7 4 -2.6 4 -6 4 C-5.67 3.34 -5.34 2.68 -5 2 C-3.02 2 -1.04 2 1 2 C0.67 1.34 0.34 0.68 0 0 Z " fill="#2D3338" transform="translate(133,86)"/>
<path d="M0 0 C1.32 0 2.64 0 4 0 C4.103125 0.78375 4.20625 1.5675 4.3125 2.375 C4.77595022 5.33045181 4.77595022 5.33045181 8 7 C5.03 7 2.06 7 -1 7 C-0.34 5.68 0.32 4.36 1 3 C0.01 2.67 -0.98 2.34 -2 2 C-1.34 1.34 -0.68 0.68 0 0 Z " fill="#101315" transform="translate(129,82)"/>
<path d="M0 0 C1.33855056 0.78281305 2.67073644 1.57651877 4 2.375 C5.11375 3.03628906 5.11375 3.03628906 6.25 3.7109375 C6.8275 4.13632812 7.405 4.56171875 8 5 C8 5.66 8 6.32 8 7 C3.545 8.485 3.545 8.485 -1 10 C-0.34 8.68 0.32 7.36 1 6 C1.66 6 2.32 6 3 6 C2.505 5.566875 2.01 5.13375 1.5 4.6875 C0 3 0 3 0 0 Z " fill="#1E2022" transform="translate(44,55)"/>
<path d="M0 0 C-1.21153375 3.63460124 -2.85050578 4.5478279 -6.14453125 6.34765625 C-8 7 -8 7 -10.9375 6.25 C-11.618125 5.8375 -12.29875 5.425 -13 5 C-13 4.34 -13 3.68 -13 3 C-12.113125 3.061875 -11.22625 3.12375 -10.3125 3.1875 C-6.21323285 2.95546601 -3.80494501 0 0 0 Z " fill="#13171C" transform="translate(98,118)"/>
<path d="M0 0 C0 1.65 0 3.3 0 5 C-1.32 5 -2.64 5 -4 5 C-4 7.97 -4 10.94 -4 14 C-4.99 14.495 -4.99 14.495 -6 15 C-6.78576226 6.00738751 -6.78576226 6.00738751 -3.5625 1.875 C-1 0 -1 0 0 0 Z " fill="#5B5856" transform="translate(100,66)"/>
<path d="M0 0 C1.32 0 2.64 0 4 0 C4.25 2.75 4.25 2.75 4 6 C2 8.375 2 8.375 0 10 C0 6.7 0 3.4 0 0 Z " fill="#ADA498" transform="translate(96,71)"/>
<path d="M0 0 C0.33 0 0.66 0 1 0 C1.08131463 1.43655854 1.13933559 2.8744483 1.1875 4.3125 C1.22230469 5.11300781 1.25710937 5.91351563 1.29296875 6.73828125 C0.93801608 9.47851584 0.10633718 10.29171079 -2 12 C-2.66 11.67 -3.32 11.34 -4 11 C-3.52269162 9.5410574 -3.04308958 8.08286504 -2.5625 6.625 C-2.29566406 5.81289063 -2.02882812 5.00078125 -1.75390625 4.1640625 C-1 2 -1 2 0 0 Z " fill="#030407" transform="translate(40,54)"/>
<path d="M0 0 C0.66 0.33 1.32 0.66 2 1 C1.34 1.66 0.68 2.32 0 3 C-0.24295974 5.10898869 -0.24295974 5.10898869 -0.125 7.4375 C-0.10695313 8.21996094 -0.08890625 9.00242187 -0.0703125 9.80859375 C-0.04710938 10.53175781 -0.02390625 11.25492188 0 12 C0 12.99 0 13.98 0 15 C-0.99 15.66 -1.98 16.32 -3 17 C-2.88660796 14.35319096 -2.75987127 11.70822482 -2.625 9.0625 C-2.5940625 8.30775391 -2.563125 7.55300781 -2.53125 6.77539062 C-2.4273685 4.84492605 -2.22104386 2.92057919 -2 1 C-1.34 0.67 -0.68 0.34 0 0 Z " fill="#ECEBE9" transform="translate(95,68)"/>
<path d="M0 0 C0.53625 0.37125 1.0725 0.7425 1.625 1.125 C1.625 1.785 1.625 2.445 1.625 3.125 C2.285 3.455 2.945 3.785 3.625 4.125 C2.573125 3.939375 1.52125 3.75375 0.4375 3.5625 C-2.94619882 3.17420669 -5.13925888 3.24252515 -8.375 4.125 C-8.375 3.135 -8.375 2.145 -8.375 1.125 C-2.95961538 -1.09038462 -2.95961538 -1.09038462 0 0 Z " fill="#333334" transform="translate(54.375,61.875)"/>
<path d="M0 0 C0.99 0 1.98 0 3 0 C3 0.99 3 1.98 3 3 C2.195625 3.12375 1.39125 3.2475 0.5625 3.375 C-0.7059375 3.684375 -0.7059375 3.684375 -2 4 C-2.33 4.66 -2.66 5.32 -3 6 C-5.475 5.01 -5.475 5.01 -8 4 C-8 3.34 -8 2.68 -8 2 C-6.865625 1.855625 -5.73125 1.71125 -4.5625 1.5625 C-1.19222799 1.38828522 -1.19222799 1.38828522 0 0 Z " fill="#444445" transform="translate(86,39)"/>
<path d="M0 0 C4.875 2.75 4.875 2.75 6 5 C5.34 5 4.68 5 4 5 C3.67 6.32 3.34 7.64 3 9 C0.9375 7.3125 0.9375 7.3125 -1 5 C-0.75 2.25 -0.75 2.25 0 0 Z " fill="#1B1C1D" transform="translate(82,81)"/>
<path d="M0 0 C0.33 0 0.66 0 1 0 C1.36552803 1.41377782 1.71695495 2.83120576 2.0625 4.25 C2.25972656 5.03890625 2.45695312 5.8278125 2.66015625 6.640625 C3.01497267 9.10394822 2.76877544 10.65604132 2 13 C1.34 13 0.68 13 0 13 C-1.33106125 9.00681626 -1.13647721 5.16255487 -1 1 C-0.67 0.67 -0.34 0.34 0 0 Z " fill="#010305" transform="translate(72,60)"/>
<path d="M0 0 C2 3 2 3 1.5390625 5.69921875 C1.23742188 6.68535156 0.93578125 7.67148438 0.625 8.6875 C0.32851563 9.68136719 0.03203125 10.67523438 -0.2734375 11.69921875 C-0.51320312 12.45847656 -0.75296875 13.21773437 -1 14 C-1.99 13.34 -2.98 12.68 -4 12 C-4 11.34 -4 10.68 -4 10 C-3.34 10 -2.68 10 -2 10 C-1.855625 8.906875 -1.71125 7.81375 -1.5625 6.6875 C-1 3 -1 3 0 0 Z " fill="#1C1D1E" transform="translate(46,96)"/>
<path d="M0 0 C0.99 0.66 1.98 1.32 3 2 C2.8125 3.8125 2.8125 3.8125 2 6 C-0.4375 7.8125 -0.4375 7.8125 -3 9 C-3.66 8.67 -4.32 8.34 -5 8 C-3.35 5.36 -1.7 2.72 0 0 Z " fill="#DAD8D5" transform="translate(105,76)"/>
<path d="M0 0 C1.875 1.5 1.875 1.5 3 3 C2.34 3 1.68 3 1 3 C1 3.66 1 4.32 1 5 C-1.86724686 4.42655063 -2.8614515 4.1385485 -5 2 C-7.10820797 2.3185177 -7.10820797 2.3185177 -9 3 C-9 2.34 -9 1.68 -9 1 C-5.72429875 -0.09190042 -3.43202271 -0.28600189 0 0 Z " fill="#8F8F90" transform="translate(92,44)"/>
<path d="M0 0 C0.33 0 0.66 0 1 0 C1 3.3 1 6.6 1 10 C-1.3431213 9.74438677 -3.67843403 9.40729228 -6 9 C-6.33 8.34 -6.66 7.68 -7 7 C-6.34 6.01 -5.68 5.02 -5 4 C-4.67 4.66 -4.34 5.32 -4 6 C-1.97536745 6.65213292 -1.97536745 6.65213292 0 7 C0 4.69 0 2.38 0 0 Z " fill="#D9D9D7" transform="translate(117,105)"/>
<path d="M0 0 C1.32 0 2.64 0 4 0 C4.33 1.65 4.66 3.3 5 5 C5.66 5 6.32 5 7 5 C7 5.66 7 6.32 7 7 C5.35 7 3.7 7 2 7 C1.34 4.69 0.68 2.38 0 0 Z " fill="#DBDBDA" transform="translate(57,108)"/>
<path d="M0 0 C0.99 0 1.98 0 3 0 C3 1.65 3 3.3 3 5 C3.66 5.33 4.32 5.66 5 6 C4.34 6 3.68 6 3 6 C3.66 7.32 4.32 8.64 5 10 C3.35 10 1.7 10 0 10 C0 6.7 0 3.4 0 0 Z " fill="#1F1F20" transform="translate(46,79)"/>
<path d="M0 0 C0 0.33 0 0.66 0 1 C-3.3 1.66 -6.6 2.32 -10 3 C-10.33 2.01 -10.66 1.02 -11 0 C-7.07632508 -2.82504594 -4.32061114 -1.49559616 0 0 Z " fill="#8D7E6B" transform="translate(116,85)"/>
<path d="M0 0 C0.66 0 1.32 0 2 0 C2.33 2.97 2.66 5.94 3 9 C2.01 9 1.02 9 0 9 C-0.87890625 2.84765625 -0.87890625 2.84765625 -1 1 C-0.67 0.67 -0.34 0.34 0 0 Z " fill="#212222" transform="translate(55,73)"/>
<path d="M0 0 C1.15224028 0.92961422 2.29659176 1.8690125 3.4375 2.8125 C4.07558594 3.33457031 4.71367187 3.85664062 5.37109375 4.39453125 C7 6 7 6 8 9 C5.6875 8.8125 5.6875 8.8125 3 8 C0.79029126 5.10451959 0 3.66842255 0 0 Z " fill="#3F4246" transform="translate(126,39)"/>
<path d="M0 0 C-0.66 1.32 -1.32 2.64 -2 4 C-4.64 4 -7.28 4 -10 4 C-4.7704918 -1.59016393 -4.7704918 -1.59016393 0 0 Z " fill="#E2E0DD" transform="translate(89,37)"/>
<path d="M0 0 C0 0.99 0 1.98 0 3 C-3 5 -3 5 -6 5 C-6.33 5.99 -6.66 6.98 -7 8 C-7.25 5.6875 -7.25 5.6875 -7 3 C-4.51960083 0.51960083 -3.55547616 0 0 0 Z " fill="#1E1F20" transform="translate(98,64)"/>
<path d="M0 0 C5.51612903 0.61290323 5.51612903 0.61290323 7.875 2.5 C9 4 9 4 9 5 C6.03 4.67 3.06 4.34 0 4 C0.66 3.34 1.32 2.68 2 2 C1.34 1.34 0.68 0.68 0 0 Z " fill="#1D2023" transform="translate(112,48)"/>
<path d="M0 0 C0.33 0 0.66 0 1 0 C1 1.98 1 3.96 1 6 C2.32 6.33 3.64 6.66 5 7 C5 7.66 5 8.32 5 9 C1.7 8.67 -1.6 8.34 -5 8 C-4.34 7.34 -3.68 6.68 -3 6 C-2.01 6 -1.02 6 0 6 C0 4.02 0 2.04 0 0 Z " fill="#161B20" transform="translate(108,107)"/>
<path d="M0 0 C1.98 0 3.96 0 6 0 C5.67 0.99 5.34 1.98 5 3 C5 2.34 5 1.68 5 1 C4.01 1.33 3.02 1.66 2 2 C2.99 3.98 3.98 5.96 5 8 C3.68 7.67 2.36 7.34 1 7 C0.67 4.69 0.34 2.38 0 0 Z " fill="#313336" transform="translate(48,92)"/>
<path d="M0 0 C4.75 0.75 4.75 0.75 7 3 C4.525 4.485 4.525 4.485 2 6 C1.67 5.34 1.34 4.68 1 4 C0.01 3.67 -0.98 3.34 -2 3 C-1.01 2.67 -0.02 2.34 1 2 C0.67 1.34 0.34 0.68 0 0 Z " fill="#1C1D1E" transform="translate(120,84)"/>
<path d="M0 0 C0 0.99 0 1.98 0 3 C-1.28650706 3.69710731 -2.57940665 4.38242876 -3.875 5.0625 C-4.95394531 5.63677734 -4.95394531 5.63677734 -6.0546875 6.22265625 C-6.69664063 6.47917969 -7.33859375 6.73570313 -8 7 C-8.66 6.67 -9.32 6.34 -10 6 C-4.30769231 0 -4.30769231 0 0 0 Z " fill="#040406" transform="translate(70,77)"/>
<path d="M0 0 C-0.33 0.66 -0.66 1.32 -1 2 C-1.66 1.67 -2.32 1.34 -3 1 C-3.66 2.65 -4.32 4.3 -5 6 C-5.66 5.34 -6.32 4.68 -7 4 C-6.34 4 -5.68 4 -5 4 C-5 3.01 -5 2.02 -5 1 C-6.98 1.33 -8.96 1.66 -11 2 C-10.67 1.34 -10.34 0.68 -10 0 C-6.35346727 -1.11421833 -3.66708957 -0.94296589 0 0 Z " fill="#DDD9D1" transform="translate(103,63)"/>
<path d="M0 0 C4.29 0 8.58 0 13 0 C12.67 0.99 12.34 1.98 12 3 C8.04 3 4.08 3 0 3 C0 2.01 0 1.02 0 0 Z " fill="#020304" transform="translate(83,42)"/>
<path d="M0 0 C2.475 0.99 2.475 0.99 5 2 C5 3.32 5 4.64 5 6 C4.34 6 3.68 6 3 6 C2.67 6.99 2.34 7.98 2 9 C0.50178941 5.62902617 0 3.79557881 0 0 Z " fill="#121B26" transform="translate(75,63)"/>
<path d="M0 0 C4.875 0.875 4.875 0.875 6 2 C6.04080783 3.99958364 6.04254356 6.00045254 6 8 C5.67 7.01 5.34 6.02 5 5 C2.49552484 3.78130071 2.49552484 3.78130071 0 3 C0 2.01 0 1.02 0 0 Z " fill="#0E0E0D" transform="translate(81,64)"/>
<path d="M0 0 C3 1.8125 3 1.8125 6 4 C6 4.99 6 5.98 6 7 C4.02 6.34 2.04 5.68 0 5 C0 3.35 0 1.7 0 0 Z " fill="#3F4446" transform="translate(119,33)"/>
<path d="M0 0 C1.258125 0.12375 2.51625 0.2475 3.8125 0.375 C4.87404297 0.47941406 4.87404297 0.47941406 5.95703125 0.5859375 C8 1 8 1 11 3 C4.6 4.23076923 4.6 4.23076923 1.5625 3.0625 C1.046875 2.711875 0.53125 2.36125 0 2 C0 1.34 0 0.68 0 0 Z " fill="#36383B" transform="translate(96,25)"/>
<path d="M0 0 C0.99 0 1.98 0 3 0 C3.33 2.64 3.66 5.28 4 8 C2.68 7.67 1.36 7.34 0 7 C0 4.69 0 2.38 0 0 Z " fill="#F0F1F0" transform="translate(121,108)"/>
<path d="M0 0 C0.95465783 2.16967689 1.14401212 3.56328793 0.3984375 5.82421875 C-0.35870385 7.5684743 -1.17609198 9.28627131 -2 11 C-2.33 11 -2.66 11 -3 11 C-3.36923077 3.49230769 -3.36923077 3.49230769 -1.5 1 C-1.005 0.67 -0.51 0.34 0 0 Z " fill="#212223" transform="translate(140,94)"/>
<path d="M0 0 C2.31 0.66 4.62 1.32 7 2 C6.67 2.99 6.34 3.98 6 5 C5.34 5 4.68 5 4 5 C4 5.66 4 6.32 4 7 C2.68 6.67 1.36 6.34 0 6 C0.99 5.34 1.98 4.68 3 4 C2.01 3.34 1.02 2.68 0 2 C0 1.34 0 0.68 0 0 Z " fill="#E9F0F3" transform="translate(123,83)"/>
<path d="M0 0 C3.4375 0.8125 3.4375 0.8125 7 2 C7.33 2.99 7.66 3.98 8 5 C5.125 4.75 5.125 4.75 2 4 C0.625 1.9375 0.625 1.9375 0 0 Z " fill="#656463" transform="translate(47,48)"/>
<path d="M0 0 C2.475 0.99 2.475 0.99 5 2 C5 2.66 5 3.32 5 4 C2.03 4 -0.94 4 -4 4 C-2.68 2.68 -1.36 1.36 0 0 Z " fill="#7F8794" transform="translate(65,29)"/>
<path d="M0 0 C0.66 0.66 1.32 1.32 2 2 C-1.3 4.31 -4.6 6.62 -8 9 C-8.66 8.34 -9.32 7.68 -10 7 C-9.36191406 6.57847656 -8.72382812 6.15695313 -8.06640625 5.72265625 C-7.24011719 5.17480469 -6.41382812 4.62695312 -5.5625 4.0625 C-4.73878906 3.51722656 -3.91507812 2.97195312 -3.06640625 2.41015625 C-1.10014075 1.16197019 -1.10014075 1.16197019 0 0 Z " fill="#99B7D2" transform="translate(100,117)"/>
<path d="M0 0 C0.33 0 0.66 0 1 0 C1.8320582 5.72040011 2.12036664 11.22240116 2 17 C1.67 17 1.34 17 1 17 C0.87625 15.906875 0.7525 14.81375 0.625 13.6875 C0.24535199 9.92618198 0.24535199 9.92618198 -2 7 C-1.34 7 -0.68 7 0 7 C0 4.69 0 2.38 0 0 Z " fill="#A5BAC8" transform="translate(131,95)"/>
<path d="M0 0 C1.32 0 2.64 0 4 0 C3.67 1.65 3.34 3.3 3 5 C1.35 5 -0.3 5 -2 5 C-1.34 3.35 -0.68 1.7 0 0 Z " fill="#6E6F70" transform="translate(101,86)"/>
<path d="M0 0 C1.258125 -0.020625 2.51625 -0.04125 3.8125 -0.0625 C4.52019531 -0.07410156 5.22789063 -0.08570313 5.95703125 -0.09765625 C8 0 8 0 11 1 C11 1.99 11 2.98 11 4 C7.37 3.01 3.74 2.02 0 1 C0 0.67 0 0.34 0 0 Z " fill="#EAE9E6" transform="translate(103,54)"/>
<path d="M0 0 C0 0.99 0 1.98 0 3 C-7.625 4.25 -7.625 4.25 -11 2 C-5.555 1.01 -5.555 1.01 0 0 Z " fill="#B1C6D4" transform="translate(80,48)"/>
<path d="M0 0 C0.99 0.495 0.99 0.495 2 1 C2.59355614 3.64860427 2.74209269 6.29197322 3 9 C2.01 9.66 1.02 10.32 0 11 C0 7.37 0 3.74 0 0 Z " fill="#1C242B" transform="translate(130,104)"/>
<path d="M0 0 C3 2 3 2 3.51171875 3.9453125 C3.67447917 5.96354167 3.83723958 7.98177083 4 10 C3.01 9.67 2.02 9.34 1 9 C0.67 6.03 0.34 3.06 0 0 Z " fill="#1A1D20" transform="translate(107,38)"/>
<path d="M0 0 C2.96865509 2.54456151 4.3619751 5.48994665 6 9 C2.29346269 7.76448756 1.35084565 6.03334922 -1 3 C-1.66 2.67 -2.32 2.34 -3 2 C-2.01 1.34 -1.02 0.68 0 0 Z " fill="#D1D1D2" transform="translate(73,76)"/>
<path d="M0 0 C3.5625 0.25 3.5625 0.25 7 1 C7.33 1.66 7.66 2.32 8 3 C4.7 2.67 1.4 2.34 -2 2 C-1.34 1.34 -0.68 0.68 0 0 Z " fill="#101217" transform="translate(107,48)"/>
<path d="M0 0 C4.455 1.98 4.455 1.98 9 4 C8.67 4.66 8.34 5.32 8 6 C1.25 5.125 1.25 5.125 -1 4 C-0.67 2.68 -0.34 1.36 0 0 Z " fill="#454646" transform="translate(90,38)"/>
<path d="M0 0 C2.97 0 5.94 0 9 0 C5.99382731 3.00617269 3.17618402 2.59585316 -1 3 C-0.67 2.01 -0.34 1.02 0 0 Z " fill="#030506" transform="translate(84,30)"/>
<path d="M0 0 C0.99 0 1.98 0 3 0 C3 1.98 3 3.96 3 6 C2.01 6.33 1.02 6.66 0 7 C0 4.69 0 2.38 0 0 Z " fill="#0E1011" transform="translate(80,95)"/>
<path d="M0 0 C2.52588702 2.36292656 3.88820837 3.66462511 5 7 C4.01 7.33 3.02 7.66 2 8 C0.23537317 4.91190305 0 3.76687864 0 0 Z " fill="#111013" transform="translate(72,78)"/>
<path d="M0 0 C2.31 0.33 4.62 0.66 7 1 C7 1.66 7 2.32 7 3 C4 3 1 3 -2 3 C-1.34 2.01 -0.68 1.02 0 0 Z " fill="#E6E5E4" transform="translate(108,81)"/>
<path d="M0 0 C0.99 0.33 1.98 0.66 3 1 C3.16873478 2.43725871 3.33490737 3.87481838 3.5 5.3125 C3.5928125 6.11300781 3.685625 6.91351563 3.78125 7.73828125 C4 10 4 10 4 13 C1.45884755 10.45884755 1.56437677 8.44778721 1.24609375 4.97265625 C1.03952945 2.7913298 1.03952945 2.7913298 0 0 Z " fill="#2C2E32" transform="translate(36,65)"/>
<path d="M0 0 C0.66 0 1.32 0 2 0 C3.6875 1.75 3.6875 1.75 5 4 C4.6875 6.25 4.6875 6.25 4 8 C0 3.375 0 3.375 0 0 Z " fill="#535860" transform="translate(59,45)"/>
<path d="M0 0 C0.99 0 1.98 0 3 0 C2.67 1.65 2.34 3.3 2 5 C0.68 5.33 -0.64 5.66 -2 6 C-1.34 4.02 -0.68 2.04 0 0 Z " fill="#242629" transform="translate(95,43)"/>
<path d="M0 0 C0.99 0 1.98 0 3 0 C1.25 5.75 1.25 5.75 -1 8 C-1.04241723 5.66705225 -1.04092937 3.33297433 -1 1 C-0.67 0.67 -0.34 0.34 0 0 Z " fill="#020304" transform="translate(135,93)"/>
<path d="M0 0 C0.33 0.99 0.66 1.98 1 3 C1.99 3.33 2.98 3.66 4 4 C4 4.66 4 5.32 4 6 C2 7.625 2 7.625 0 9 C0 6.03 0 3.06 0 0 Z " fill="#343537" transform="translate(43,55)"/>
<path d="M0 0 C1.67542976 0.28604898 3.34385343 0.61781233 5 1 C4.01 1.495 4.01 1.495 3 2 C2.67 2.99 2.34 3.98 2 5 C1.01 5.495 1.01 5.495 0 6 C-0.38218767 4.34385343 -0.71395102 2.67542976 -1 1 C-0.67 0.67 -0.34 0.34 0 0 Z " fill="#F4F4F3" transform="translate(89,36)"/>
<path d="M0 0 C-0.33 0.99 -0.66 1.98 -1 3 C-2.65 2.67 -4.3 2.34 -6 2 C-6 1.34 -6 0.68 -6 0 C-3.50907189 -1.24546405 -2.58919267 -0.7767578 0 0 Z " fill="#1A1C20" transform="translate(103,33)"/>
</svg>
